<?xml version="1.0" standalone="no"?>
<!DOCTYPE svg PUBLIC "-//W3C//DTD SVG 1.1//EN" "http://www.w3.org/Graphics/SVG/1.1/DTD/svg11.dtd" >
<svg xmlns="http://www.w3.org/2000/svg">
<metadata>Generated by IcoMoon</metadata>
<defs>
<font id="icomoon" horiz-adv-x="1024">
<font-face units-per-em="1024" ascent="960" descent="-64" />
<missing-glyph horiz-adv-x="1024" />
<glyph unicode="&#x20;" horiz-adv-x="512" d="" />
<glyph unicode="&#xe900;" glyph-name="location_on, place, room" d="M512 448.667q44 0 75 31t31 75-31 75-75 31-75-31-31-75 31-75 75-31zM512 852.667q124 0 211-87t87-211q0-62-31-142t-75-150-87-131-73-97l-32-34q-12 14-32 37t-72 92-91 134-71 147-32 144q0 124 87 211t211 87z" />
<glyph unicode="&#xe901;" glyph-name="twitter-square" horiz-adv-x="878" d="M731.429 602.286c-21.714-9.714-44.571-16-69.143-19.429 25.143 14.857 44 38.857 53.143 66.857-23.429-13.714-49.143-24-76.571-29.143-21.714 23.429-53.143 37.714-87.429 37.714-66.286 0-120-53.714-120-120 0-9.143 0.571-18.857 2.857-27.429-100 5.143-188.571 52.571-248 125.714-10.286-17.714-16.571-38.857-16.571-60.571 0-41.714 19.429-78.286 52-100-20 0.571-38.857 6.286-57.143 14.857v-1.143c0-58.286 44-106.857 98.857-117.714-10.286-2.857-18.286-4.571-29.143-4.571-7.429 0-14.857 1.143-22.286 2.286 15.429-47.429 59.429-82.286 112-83.429-41.143-32-92.571-51.429-149.143-51.429-9.714 0-19.429 0.571-28.571 1.714 53.143-33.714 116-53.714 184-53.714 220.571 0 341.714 182.857 341.714 341.714 0 5.143 0 10.286-0.571 15.429 23.429 16.571 44 37.714 60 62.286zM877.714 713.143v-548.571c0-90.857-73.714-164.571-164.571-164.571h-548.571c-90.857 0-164.571 73.714-164.571 164.571v548.571c0 90.857 73.714 164.571 164.571 164.571h548.571c90.857 0 164.571-73.714 164.571-164.571z" />
<glyph unicode="&#xe902;" glyph-name="map" d="M292.571 950.857c9.714 0 18.286-8.571 18.286-18.286v-841.143c0-6.857-4-13.143-9.714-16l-274.286-146.286c-2.857-1.714-5.714-2.286-8.571-2.286-9.714 0-18.286 8.571-18.286 18.286v841.143c0 6.857 4 13.143 9.714 16l274.286 146.286c2.857 1.714 5.714 2.286 8.571 2.286zM1005.714 950.857c9.714 0 18.286-8.571 18.286-18.286v-841.143c0-6.857-4-13.143-9.714-16l-274.286-146.286c-2.857-1.714-5.714-2.286-8.571-2.286-9.714 0-18.286 8.571-18.286 18.286v841.143c0 6.857 4 13.143 9.714 16l274.286 146.286c2.857 1.714 5.714 2.286 8.571 2.286zM365.714 950.857c2.857 0 5.714-0.571 8-1.714l292.571-146.286c6.286-3.429 10.286-9.714 10.286-16.571v-841.143c0-9.714-8.571-18.286-18.286-18.286-2.857 0-5.714 0.571-8 1.714l-292.571 146.286c-6.286 3.429-10.286 9.714-10.286 16.571v841.143c0 9.714 8.571 18.286 18.286 18.286z" />
<glyph unicode="&#xe903;" glyph-name="search" horiz-adv-x="951" d="M658.286 475.428c0 141.143-114.857 256-256 256s-256-114.857-256-256 114.857-256 256-256 256 114.857 256 256zM950.857 0c0-40-33.143-73.143-73.143-73.143-19.429 0-38.286 8-51.429 21.714l-196 195.429c-66.857-46.286-146.857-70.857-228-70.857-222.286 0-402.286 180-402.286 402.286s180 402.286 402.286 402.286 402.286-180 402.286-402.286c0-81.143-24.571-161.143-70.857-228l196-196c13.143-13.143 21.143-32 21.143-51.429z" />
<glyph unicode="&#xe904;" glyph-name="chevron-down" d="M961.714 577.428l-424-423.429c-14.286-14.286-37.143-14.286-51.429 0l-424 423.429c-14.286 14.286-14.286 37.714 0 52l94.857 94.286c14.286 14.286 37.143 14.286 51.429 0l303.429-303.429 303.429 303.429c14.286 14.286 37.143 14.286 51.429 0l94.857-94.286c14.286-14.286 14.286-37.714 0-52z" />
<glyph unicode="&#xe905;" glyph-name="cancel" d="M666.217 438.813l262.089-262.089c17.025-17.025 17.025-44.669 0-61.697l-92.478-92.478c-17.025-17.025-44.628-17.025-61.697 0l-262.131 262.089-262.131-262.089c-17.025-17.025-44.628-17.025-61.653 0l-92.522 92.478c-17.025 17.025-17.025 44.628 0 61.697l262.131 262.089-262.131 262.131c-17.025 17.025-17.025 44.669 0 61.697l92.566 92.478c17.025 17.025 44.628 17.025 61.653 0l262.089-262.131 262.131 262.131c17.025 17.025 44.628 17.025 61.697 0l92.478-92.522c17.025-17.025 17.025-44.628 0-61.697l-262.089-262.089z" />
<glyph unicode="&#xe906;" glyph-name="th-menu" d="M810.667 213.334h-597.333c-47.061 0-85.333-38.272-85.333-85.333s38.272-85.333 85.333-85.333h597.333c47.061 0 85.333 38.272 85.333 85.333s-38.272 85.333-85.333 85.333zM810.667 512h-597.333c-47.061 0-85.333-38.272-85.333-85.333s38.272-85.333 85.333-85.333h597.333c47.061 0 85.333 38.272 85.333 85.333s-38.272 85.333-85.333 85.333zM810.667 810.667h-597.333c-47.061 0-85.333-38.272-85.333-85.333s38.272-85.333 85.333-85.333h597.333c47.061 0 85.333 38.272 85.333 85.333s-38.272 85.333-85.333 85.333z" />
<glyph unicode="&#xe907;" glyph-name="facebook-square" horiz-adv-x="878" d="M713.143 877.714c90.857 0 164.571-73.714 164.571-164.571v-548.571c0-90.857-73.714-164.571-164.571-164.571h-107.429v340h113.714l17.143 132.571h-130.857v84.571c0 38.286 10.286 64 65.714 64l69.714 0.571v118.286c-12 1.714-53.714 5.143-101.714 5.143-101.143 0-170.857-61.714-170.857-174.857v-97.714h-114.286v-132.571h114.286v-340h-304c-90.857 0-164.571 73.714-164.571 164.571v548.571c0 90.857 73.714 164.571 164.571 164.571h548.571z" />
<glyph unicode="&#xe908;" glyph-name="linkedin-square" horiz-adv-x="878" d="M135.429 142.857h132v396.571h-132v-396.571zM276 661.714c-0.571 38.857-28.571 68.571-73.714 68.571s-74.857-29.714-74.857-68.571c0-37.714 28.571-68.571 73.143-68.571h0.571c46.286 0 74.857 30.857 74.857 68.571zM610.286 142.857h132v227.429c0 121.714-65.143 178.286-152 178.286-70.857 0-102.286-39.429-119.429-66.857h1.143v57.714h-132s1.714-37.143 0-396.571v0h132v221.714c0 11.429 0.571 23.429 4 32 9.714 23.429 31.429 48 68 48 47.429 0 66.286-36 66.286-89.714v-212zM877.714 713.143v-548.571c0-90.857-73.714-164.571-164.571-164.571h-548.571c-90.857 0-164.571 73.714-164.571 164.571v548.571c0 90.857 73.714 164.571 164.571 164.571h548.571c90.857 0 164.571-73.714 164.571-164.571z" />
<glyph unicode="&#xe909;" glyph-name="filter" horiz-adv-x="805" d="M801.714 782.286c5.714-13.714 2.857-29.714-8-40l-281.714-281.714v-424c0-14.857-9.143-28-22.286-33.714-4.571-1.714-9.714-2.857-14.286-2.857-9.714 0-18.857 3.429-25.714 10.857l-146.286 146.286c-6.857 6.857-10.857 16-10.857 25.714v277.714l-281.714 281.714c-10.857 10.286-13.714 26.286-8 40 5.714 13.143 18.857 22.286 33.714 22.286h731.429c14.857 0 28-9.143 33.714-22.286z" />
<glyph unicode="&#xe90a;" glyph-name="sort-amount-desc" horiz-adv-x="1041" d="M694.857 54.857v-109.714c0-10.286-8-18.286-18.286-18.286h-146.286c-10.286 0-18.286 8-18.286 18.286v109.714c0 10.286 8 18.286 18.286 18.286h146.286c10.286 0 18.286-8 18.286-18.286zM420.571 128c0-5.143-2.286-9.714-5.714-13.714l-182.286-182.286c-4-3.429-8.571-5.143-13.143-5.143s-9.143 1.714-13.143 5.143l-182.857 182.857c-5.143 5.714-6.857 13.143-4 20s9.714 11.429 17.143 11.429h109.714v786.286c0 10.286 8 18.286 18.286 18.286h109.714c10.286 0 18.286-8 18.286-18.286v-786.286h109.714c10.286 0 18.286-8 18.286-18.286zM804.571 347.428v-109.714c0-10.286-8-18.286-18.286-18.286h-256c-10.286 0-18.286 8-18.286 18.286v109.714c0 10.286 8 18.286 18.286 18.286h256c10.286 0 18.286-8 18.286-18.286zM914.286 640v-109.714c0-10.286-8-18.286-18.286-18.286h-365.714c-10.286 0-18.286 8-18.286 18.286v109.714c0 10.286 8 18.286 18.286 18.286h365.714c10.286 0 18.286-8 18.286-18.286zM1024 932.571v-109.714c0-10.286-8-18.286-18.286-18.286h-475.429c-10.286 0-18.286 8-18.286 18.286v109.714c0 10.286 8 18.286 18.286 18.286h475.429c10.286 0 18.286-8 18.286-18.286z" />
<glyph unicode="&#xe90b;" glyph-name="icon-supplies" d="M510.878 950.826c-209.158 0-386.109-167.327-385.37-372.783 0-8.144 5.553-16.289 13.327-19.25l263.577-217.672h-99.212v-414.245h417.946v414.245h-99.212c89.956 72.557 177.321 148.446 267.649 220.635 5.553 3.702 9.255 10.736 8.884 17.4-1.111 205.827-178.802 371.673-387.59 371.673zM362.062 562.495l116.24-221.374h-10.736l-280.975 232.48c60.712 27.025 125.495 9.625 175.471-11.106zM618.974 568.419l-106.985-203.235-106.245 203.235c74.039 19.99 153.259 20.731 213.23 0zM838.868 573.972l-282.086-232.85h-10.365l116.981 222.485c57.75 27.764 119.942 31.095 175.471 10.365zM345.032 299.659h333.912v-331.322h-333.912zM470.158 258.197v-82.923h-83.293v-82.553h83.293v-82.923h83.664v82.923h83.664v82.553h-83.664v82.923h-83.664z" />
<glyph unicode="&#xe90c;" glyph-name="icon-hospital" d="M340.105 950.838v-305.022h343.803v305.022h-343.803zM473.226 897.888h77.56v-60.78h60.78v-77.56h-60.78v-61.154h-77.56v61.154h-61.154v77.56h61.154v60.78zM135.39 744.259c-19.208 0-31.696-11.704-31.696-23.119v-712.963h319.565v190.546c0 17.59 15.741 29.085 31.696 29.085h113.731c15.955 0 31.696-11.496 31.696-29.085v-190.546h319.565v712.963c0 11.415-12.488 23.119-31.696 23.119h-173.393v-113.731c0-0.043 0-0.096 0-0.149 0-8.568-6.945-15.514-15.514-15.514-0.053 0-0.105 0-0.156 0.001h-374.745c-8.472 0.126-15.288 7.023-15.288 15.513 0 0.053 0 0.105 0.001 0.157v-0.007 113.731h-173.766zM186.849 540.289h87.628v-66.002h-87.628v66.002zM374.411 540.289h87.628v-66.002h-87.628v66.002zM561.974 540.289h87.256v-66.002h-87.256v66.002zM749.536 540.289h87.256v-66.002h-87.256v66.002zM186.849 385.54h87.628v-66.002h-87.628v66.002zM374.411 385.54h87.628v-66.002h-87.628v66.002zM561.974 385.54h87.256v-66.002h-87.256v66.002zM749.536 385.54h87.256v-66.002h-87.256v66.002zM186.849 230.791h87.628v-66.374h-87.628v66.374zM749.536 230.791h87.256v-66.374h-87.256v66.374zM454.955 196.859c-0.782 0-0.649-0.37-0.745-0.37v-188.309h115.222v188.309c-0.096 0.005 0.036 0.37-0.745 0.37h-113.731zM33.591-22.772c-0.782 0-0.649-0.37-0.745-0.37v-49.967c0.108-0.012 0.006 0 0.745 0h956.458c0.831 0 0.988 0.008 1.119 0v49.967c-0.124-0.012-0.268 0.37-1.119 0.37h-47.73c-4.172-2.003-9.252-2.003-13.424 0h-337.091c-4.172-2.003-9.252-2.003-13.424 0h-132.748c-4.172-2.003-9.252-2.003-13.424 0h-337.091c-4.172-2.003-9.252-2.003-13.424 0h-48.103z" />
<glyph unicode="&#xe90d;" glyph-name="icon-test" d="M691.451 635.997h-343.615v-25.453h42.378v-133.629h94.432v-25.453h-94.303v-139.993h94.432v-25.453h-94.432v-139.993h94.432v-25.453h-94.432v-68.341c2.257-69.713 59.315-125.369 129.367-125.369s127.11 55.661 129.359 125.166l0.009 0.206v558.312h42.378zM538.859 769.752c0-51.871-42.052-93.922-93.922-93.922s-93.922 42.052-93.922 93.922c0 51.871 42.052 93.922 93.922 93.922s93.922-42.052 93.922-93.922zM745.665 811.114c0-48.356-39.202-87.559-87.559-87.559s-87.559 39.202-87.559 87.559c0 48.356 39.202 87.559 87.559 87.559s87.559-39.202 87.559-87.559zM318.944 702.938c0-23.545-19.092-42.634-42.634-42.634s-42.634 19.092-42.634 42.634c0 23.545 19.092 42.634 42.634 42.634s42.634-19.092 42.634-42.634zM833.605 534.057c0-39.854-32.308-72.161-72.161-72.161s-72.161 32.308-72.161 72.161c0 39.854 32.308 72.161 72.161 72.161s72.161-32.308 72.161-72.161zM580.22 911.016c0-22.004-17.834-39.835-39.835-39.835s-39.835 17.834-39.835 39.835c0 22.004 17.834 39.835 39.835 39.835s39.835-17.834 39.835-39.835zM311.309 548.565c0-33.386-27.064-60.45-60.45-60.45s-60.45 27.064-60.45 60.45c0 33.386 27.064 60.45 60.45 60.45s60.45-27.064 60.45-60.45z" />
<glyph unicode="&#xe90e;" glyph-name="icon-patient" d="M1019.133 566.138l-49.546 49.546c-6.458 6.458-16.894 6.458-23.352 0l-198.182-198.182c-6.458-6.458-6.458-16.894 0-23.352l49.546-49.546c3.221-3.221 7.448-4.839 11.677-4.839s8.456 1.618 11.677 4.839l128.703 128.703 17.936-17.936-132.122-132.122h-521.65c-2.808 0-5.566-0.71-8.027-2.082l-297.274-165.152 16.054-28.868 272.732 151.511v-188.967c-28.406-7.383-49.546-33.031-49.546-63.716 0-36.433 29.628-66.061 66.061-66.061 30.685 0 56.334 21.139 63.716 49.546h467.117c7.383-28.406 33.031-49.546 63.716-49.546 36.433 0 66.061 29.628 66.061 66.061 0 30.685-21.139 56.334-49.546 63.716v276.266l77.738 77.738c6.458 6.458 6.458 16.894 0 23.352l-29.611 29.611 46.126 46.126c6.458 6.458 6.458 16.894 0 23.352zM891.849 89.69c-23.104-6.011-41.189-24.096-47.2-47.2h-467.117c-6.011 23.104-24.096 41.189-47.2 47.2v117.953h429.396c4.376 0 8.588 1.734 11.677 4.839l120.444 120.444v-243.236zM825.788 570.977c45.532 0 82.576 37.043 82.576 82.576s-37.043 82.576-82.576 82.576-82.576-37.043-82.576-82.576 37.043-82.576 82.576-82.576zM82.604 240.672c2.841 0 5.715 0.726 8.307 2.247l194.35 113.36h342.344c4.376 0 8.588 1.734 11.677 4.839l165.152 165.152c5.814 5.814 6.474 15.012 1.535 21.587-1.8 2.394-44.955 58.811-119.042 58.811-9.727 0-19.654-1.008-29.528-2.973-31.892-6.375-66.87-31.363-95.855-57.026v172.949h33.031c9.117 0 16.515 7.398 16.515 16.515v165.152c0 9.117-7.398 16.515-16.515 16.515h-99.092c-9.117 0-16.515-7.398-16.515-16.515v-16.515h-33.031v33.031h-33.031v-429.396h-99.092c-3.172 0-6.259-0.908-8.935-2.626l-227.133-146.012h-61.206c-6.672 0-12.699-4.030-15.26-10.19-2.559-6.177-1.139-13.278 3.585-18.002l66.061-66.061c3.172-3.187 7.416-4.839 11.677-4.839zM445.938 851.735h33.031v-115.607c0-9.117 7.398-16.515 16.515-16.515h33.031v-204.69c-10.751-11.148-19.175-20.678-24.195-26.524h-58.382v363.335z" />
<glyph unicode="&#xe90f;" glyph-name="male, gender, man, sex" d="M540.864 767.872h292l-0.64-295.328-100.128 100.096-94.368-94.368c21.184-37.248 33.376-80.224 33.376-126.112 0-141.376-114.56-256-256-256-141.376 0-256 114.624-256 256s114.624 256 256 256c48.8 0 94.272-13.92 133.12-37.632l93.376 94.592-100.736 102.752zM287.136 352.128c0-70.688 57.312-128 128-128s128 57.312 128 128-57.312 128-128 128-128-57.312-128-128z" />
<glyph unicode="&#xe910;" glyph-name="female, gender1, sex1, woman" d="M577.248 360.928v-105.376h127.872v-127.872h-127.872v-127.872h-129.824v127.872h-127.84v127.872h127.84v105.76c-109.92 28.64-191.136 128.288-191.136 247.136 0 141.216 114.496 255.712 255.712 255.712 141.248 0 255.68-114.496 255.68-255.712 0-119.328-79.872-219.264-190.432-247.52zM512 736.288c-70.624 0-127.872-57.216-127.872-127.84 0-70.592 57.248-127.84 127.872-127.84s127.872 57.248 127.872 127.84c0 70.624-57.248 127.84-127.872 127.84z" />
<glyph unicode="&#xe911;" glyph-name="calendar" horiz-adv-x="951" d="M73.143 0h164.571v164.571h-164.571v-164.571zM274.286 0h182.857v164.571h-182.857v-164.571zM73.143 201.143h164.571v182.857h-164.571v-182.857zM274.286 201.143h182.857v182.857h-182.857v-182.857zM73.143 420.571h164.571v164.571h-164.571v-164.571zM493.714 0h182.857v164.571h-182.857v-164.571zM274.286 420.571h182.857v164.571h-182.857v-164.571zM713.143 0h164.571v164.571h-164.571v-164.571zM493.714 201.143h182.857v182.857h-182.857v-182.857zM292.571 694.857v164.571c0 9.714-8.571 18.286-18.286 18.286h-36.571c-9.714 0-18.286-8.571-18.286-18.286v-164.571c0-9.714 8.571-18.286 18.286-18.286h36.571c9.714 0 18.286 8.571 18.286 18.286zM713.143 201.143h164.571v182.857h-164.571v-182.857zM493.714 420.571h182.857v164.571h-182.857v-164.571zM713.143 420.571h164.571v164.571h-164.571v-164.571zM731.429 694.857v164.571c0 9.714-8.571 18.286-18.286 18.286h-36.571c-9.714 0-18.286-8.571-18.286-18.286v-164.571c0-9.714 8.571-18.286 18.286-18.286h36.571c9.714 0 18.286 8.571 18.286 18.286zM950.857 731.428v-731.429c0-40-33.143-73.143-73.143-73.143h-804.571c-40 0-73.143 33.143-73.143 73.143v731.429c0 40 33.143 73.143 73.143 73.143h73.143v54.857c0 50.286 41.143 91.429 91.429 91.429h36.571c50.286 0 91.429-41.143 91.429-91.429v-54.857h219.429v54.857c0 50.286 41.143 91.429 91.429 91.429h36.571c50.286 0 91.429-41.143 91.429-91.429v-54.857h73.143c40 0 73.143-33.143 73.143-73.143z" />
<glyph unicode="&#xe912;" glyph-name="check" d="M954.857 627.428c0-14.286-5.714-28.571-16-38.857l-491.429-491.429c-10.286-10.286-24.571-16-38.857-16s-28.571 5.714-38.857 16l-284.571 284.571c-10.286 10.286-16 24.571-16 38.857s5.714 28.571 16 38.857l77.714 77.714c10.286 10.286 24.571 16 38.857 16s28.571-5.714 38.857-16l168-168.571 374.857 375.429c10.286 10.286 24.571 16 38.857 16s28.571-5.714 38.857-16l77.714-77.714c10.286-10.286 16-24.571 16-38.857z" />
<glyph unicode="&#xe913;" glyph-name="symptom-breath" d="M288.035-72.438c2.936-0.466 5.849-0.696 8.732-0.696 26.55 0 49.919 19.28 54.234 46.332l35.757 224.183 100.457 87.459h49.564l100.457-87.459 35.761-224.183c4.313-27.059 27.682-46.338 54.234-46.332 2.876 0 5.8 0.228 8.732 0.696 29.99 4.786 50.421 32.974 45.638 62.963l-38.905 243.889c-2.033 12.73-8.47 24.343-18.198 32.814l-90.223 78.548v123.284c-32.059-6.057-71.994-10.28-121.13-13.124-0.907-0.051-1.794-0.075-2.68-0.075h-0.004c-24.211 0-44.272 18.947-45.673 43.137-1.465 25.2 17.855 46.895 43.061 48.358 59.082 3.419 96.199 8.708 119.421 13.746-3.664 1.948-7.505 3.901-11.465 5.823l9.96 6.078c10.397-5.269 19.66-10.597 26.672-15.37-18.78-6.352-59.176-15.217-144.019-20.128-19.796-1.149-34.919-18.13-33.77-37.929 1.104-19.092 16.931-33.837 35.816-33.834 0.696 0 1.405 0.017 2.11 0.058 152.929 8.861 215.27 31.281 222.347 79.971 4.354 29.962-16 52.712-39.765 69.564-9.49 6.73-19.526 12.519-28.752 17.447-16.662 8.902-33.355 16.142-44.628 20.724-7.501-53.892-53.861-95.522-109.786-95.522-56.236 0-102.79 42.090-109.899 96.412-36.041-16.253-105.828-72.845-120.134-268.18-3.236-44.214-3.654-95.494-0.167-155.073 1.118-19.086 16.941-33.813 35.816-33.813 0.704 0 1.418 0.017 2.132 0.062 19.799 1.158 34.909 18.148 33.756 37.948-3.416 58.392-2.994 107.202-0.028 148.058 5.88 80.936 21.804 130.52 38.008 160.712v-196.792l-30.462-26.519c-0.167-25.721 0.527-53.879 2.339-84.874 0.713-12.21-3.372-23.966-11.499-33.104s-19.33-14.565-31.539-15.279c-0.897-0.054-1.805-0.082-2.706-0.082h-0.004c-17.156 0-32.192 9.547-40.016 23.705l-35.192-220.628c-4.786-30.003 15.648-58.188 45.638-62.973zM482.175 940.17c4.344 4.167 0.167 13.861-4.224 9.643-10.958-10.523-19.226-25.514-21.013-43.555-1.93-19.446 12.43-31.927 14.044-50.184 1.087-12.29-4.654-25.747-11.231-33.94-3.963-4.92 1.975-12.802 5.917-7.892 11.020 13.705 15.833 33.535 12.196 52.989-3.623 19.365-17.43 28.687-9.965 50.767 2.902 8.596 8.542 16.662 14.276 22.169zM531.246 940.17c4.341 4.167 0.167 13.861-4.224 9.643-10.952-10.523-19.226-25.514-21.016-43.555-1.92-19.446 12.434-31.927 14.048-50.184 1.087-12.29-4.654-25.747-11.231-33.94-3.959-4.92 1.975-12.802 5.917-7.892 11.020 13.705 15.833 33.535 12.196 52.989-3.617 19.365-17.43 28.687-9.965 50.767 2.902 8.596 8.545 16.662 14.276 22.169zM580.316 940.17c4.344 4.167 0.17 13.861-4.219 9.643-10.952-10.523-19.226-25.514-21.016-43.555-1.927-19.446 12.424-31.927 14.044-50.184 1.091-12.29-4.654-25.747-11.231-33.94-3.959-4.92 1.979-12.802 5.922-7.892 11.015 13.705 15.827 33.535 12.196 52.989-3.617 19.365-17.434 28.687-9.965 50.767 2.902 8.596 8.545 16.662 14.269 22.169zM512.002 567.848c55.788 0 100.998 45.216 100.998 100.998s-45.21 100.998-100.998 100.998c-55.778 0-100.998-45.216-100.998-100.998s45.219-100.998 100.998-100.998zM511.998 579.82c-21.483 0-38.905 9.045-38.905 20.2s17.416 20.2 38.905 20.2c21.483 0 38.905-9.045 38.905-20.2s-17.416-20.2-38.905-20.2zM763.045 768.654c-5.931 34.402-70.971 18.82-87.239-18.022 55.502 8.134 92.824-14.354 87.239 18.022zM668.028 821.658c-23.004 15.35-49.521-30.523-37.216-59.965 25.594 36.332 58.871 45.516 37.216 59.965zM670.12 692.205c38.833-1.585 61.353-21.686 61.707 1.078 0.378 24.18-45.907 21.919-61.707-1.078z" />
<glyph unicode="&#xe914;" glyph-name="symptom-cough" d="M356.633 397.053v0c-20.142 0-36.613 15.77-37.511 35.906-0.913 20.694 15.177 38.277 35.868 39.19l25.78 1.142c-2.997 1.543-5.805 3.487-8.331 5.823l-84.13 77.813c-2.98 2.755-5.389 5.896-7.266 9.263-12.265-79.018-3.904-143.451 13.66-221.497 0.283-2.637 0.752-5.284 1.514-7.919 0.464-1.61 45.491-162.949-39.47-344.048-10.798-23.018-0.895-50.431 22.123-61.229 6.324-2.969 12.97-4.371 19.523-4.371 17.299 0 33.876 9.8 41.709 26.495 62.589 133.405 64.982 257.509 57.576 333.235 2.077-0.39 4.159-0.792 6.239-1.193l-3.735-9.188-0.77 0.324c4.869-2.199 118.515-56.562 57.032-292.251-6.42-24.602 8.324-49.75 32.926-56.165 3.896-1.017 7.804-1.502 11.653-1.502 20.444 0 39.113 13.722 44.517 34.428 62.978 241.422-29.025 345.278-80.37 382.671-6.526 21.546-10.033 40.333-11.086 57.355l-95.772-4.239c-0.56-0.026-1.123-0.040-1.68-0.040zM417.964 474.936l32.886 1.455-5.167 28.925-18.869-22.661c-2.534-3.047-5.536-5.634-8.85-7.719zM311.81 613.873c-5.521-0.379-10.938-2.295-15.56-5.739-0.379-0.265-0.737-0.557-1.097-0.837l0.033-0.011c-1.042-0.855-2.052-1.756-2.992-2.774-11.048-11.943-10.323-30.587 1.62-41.637l84.127-77.813c5.462-5.054 12.615-7.834 20.009-7.834 0.638 0 1.277 0.018 1.915 0.062 8.066 0.527 15.56 4.339 20.732 10.548l99.359 119.343c10.413 12.507 8.71 31.084-3.794 41.497-12.503 10.408-31.081 8.718-41.497-3.794l-79.493-95.487-44.152 40.837 17.811-5.44 25.57-23.652 24.441 29.357c-31.766 7.908-64.655 16.382-93.433 22.779-4.225 0.977-8.931 1.187-13.6 0.592zM456.231 658.234c7.974 15.34 23.582 23.026 34.863 17.162 4.592-2.386 7.734-6.674 9.336-11.93 7.646-0.641 14.979-3.616 20.908-8.559 1.429-1.19 2.717-2.494 3.934-3.849 5.984 11.457 9.388 24.477 9.388 38.3 0 45.768-37.099 82.867-82.867 82.867s-82.867-37.099-82.867-82.867c0-39.584 27.762-72.664 64.876-80.885l19.162 23.018c-2.438 7.686-1.517 17.539 3.266 26.742zM447.314 507.273l6.103 0.858 7.039-39.426-105.105-4.651c-16.257-0.718-28.852-14.481-28.135-30.739 0.7-15.815 13.737-28.164 29.412-28.16 0.438 0 0.88 0.008 1.322 0.030l138.724 6.14c8.486 0.376 16.393 4.394 21.703 11.023 5.304 6.634 7.494 15.23 6 23.59l-18.414 103.123c-1.23 6.891-4.774 12.78-9.675 17.041l-48.973-58.829zM617.073 558.346c15.174 17.022-19.243 43.934-44.692 37.265 26.73-25.063 30.414-53.285 44.692-37.265zM601.929 619.702c1.227 22.661-42.248 22.208-57.896 1.219 36.35-2.887 56.744-22.546 57.896-1.219zM563.615 554.004c17.232 9.841-3.705 41.572-26.547 43.12 15.107-28.080 10.328-52.383 26.547-43.12zM519.931 809.056l5.525-5.984 174.94 123.839-8.287 23.94zM562.237 710.257l214.334 1.252 6.928 24.371-222.359-17.554zM377.463 775.187c-8.6-6.63-9.848-17.446-9.896-17.904-0.218-2.015 1.237-3.819 3.257-4.044 0.14-0.015 0.277-0.023 0.409-0.023 1.845 0 3.44 1.392 3.657 3.27 0.011 0.081 1.017 8.238 7.123 12.905 3.911 2.992 9.218 4.004 15.76 3.009 2.018-0.32 3.889 1.079 4.195 3.090s-1.079 3.889-3.090 4.195c-8.643 1.307-15.845-0.207-21.413-4.502zM399.675 796.074c-12.78 2.441-23.571 0.67-32.064-5.277-12.92-9.048-15.531-24.403-15.638-25.056-0.324-2.004 1.035-3.884 3.039-4.217 0.202-0.033 0.402-0.047 0.6-0.047 1.767 0 3.33 1.282 3.631 3.079 0.023 0.129 2.284 13.031 12.651 20.249 6.784 4.729 15.667 6.088 26.395 4.032 1.997-0.379 3.926 0.932 4.309 2.927 0.387 1.997-0.925 3.926-2.924 4.309zM259.412 605c0.14-0.015 0.277-0.023 0.409-0.023 1.845 0 3.44 1.392 3.657 3.27 0.011 0.081 1.017 8.238 7.123 12.905 3.911 2.992 9.215 4 15.76 3.009 2.022-0.31 3.889 1.075 4.195 3.090s-1.079 3.889-3.090 4.195c-8.643 1.312-15.845-0.207-21.409-4.502-8.6-6.63-9.848-17.446-9.896-17.904-0.218-2.015 1.237-3.819 3.252-4.044zM288.265 647.834c-12.776 2.438-23.571 0.667-32.064-5.277-12.92-9.048-15.531-24.403-15.638-25.056-0.324-2.004 1.035-3.884 3.039-4.217 0.202-0.033 0.402-0.047 0.6-0.047 1.767 0 3.33 1.282 3.631 3.079 0.023 0.129 2.284 13.031 12.651 20.249 6.788 4.729 15.671 6.088 26.395 4.032 1.989-0.368 3.926 0.932 4.309 2.927 0.387 1.997-0.925 3.926-2.924 4.309zM549.406 411.35c0.877 0 1.76 0.31 2.46 0.947 6.494 5.844 9.896 12.371 10.113 19.399 0.335 10.853-7.229 18.683-7.554 19.012-1.425 1.452-3.756 1.473-5.207 0.047s-1.473-3.756-0.047-5.207c0.059-0.059 5.679-6.004 5.447-13.623-0.155-4.942-2.736-9.701-7.678-14.15-1.514-1.359-1.635-3.686-0.272-5.199 0.729-0.81 1.732-1.222 2.74-1.222zM561.667 400.423c0.832 0 1.668 0.28 2.354 0.851 10.006 8.331 15.48 17.792 16.274 28.127 1.207 15.726-9.001 27.493-9.436 27.987-1.347 1.522-3.662 1.668-5.19 0.327-1.525-1.338-1.68-3.665-0.342-5.193 0.085-0.1 8.619-10.036 7.616-22.628-0.655-8.246-5.245-15.97-13.638-22.956-1.565-1.304-1.775-3.624-0.475-5.186 0.729-0.877 1.779-1.33 2.837-1.33z" />
<glyph unicode="&#xe915;" glyph-name="symptom-fever" d="M882.024 378.972c-1.076 1.076-2.153 2.153-2.153 4.307v188.379c0 25.835-18.299 50.593-44.134 55.975-35.523 7.534-66.74-19.377-66.74-53.822v-190.532c0-2.153-1.076-3.23-2.153-4.307-23.681-22.606-33.37-58.129-20.453-92.575 9.688-23.681 30.141-41.982 54.899-48.441 54.899-13.995 105.493 27.988 105.493 80.735 2.153 22.606-7.534 44.134-24.758 60.282zM806.671 257.332c-16.146 4.307-30.141 16.146-37.676 31.218-15.070 30.141-5.382 62.436 18.299 79.658 1.076 1.076 2.153 3.23 2.153 4.307v199.144c0 18.299 12.917 35.523 31.218 36.6 20.453 2.153 38.752-13.995 38.752-34.446v-200.22c0-2.153 1.076-3.23 2.153-4.307 16.146-11.841 25.835-30.141 25.835-50.593 1.076-40.906-37.676-73.199-80.735-61.358zM840.042 358.519v175.463c0 8.612-6.458 15.070-15.070 15.070s-15.070-6.458-15.070-15.070v-175.463c-16.146-6.458-27.988-21.529-27.988-39.829 0-23.681 19.377-43.059 43.059-43.059s43.059 19.377 43.059 43.059c0 18.299-11.841 33.37-27.988 39.829zM361.019 736.355c7.534 2.153 10.765 10.765 8.612 18.299v1.076c-4.307 12.917-7.534 24.758-6.458 35.523s4.307 21.529 9.688 35.523c2.153 6.458 5.382 12.917 8.612 20.453 3.23 8.612 6.458 18.299 6.458 27.988 1.076 9.688-1.076 19.377-4.307 29.064-1.076 4.307-3.23 8.612-6.458 12.917-2.153 3.23-4.307 6.458-8.612 10.765-3.23 3.23-7.534 5.382-12.917 4.307-7.534-2.153-11.841-8.612-9.688-16.146l1.076-5.382c0-2.153 2.153-5.382 2.153-7.534 1.076-3.23 1.076-5.382 1.076-8.612 1.076-5.382 0-10.765 0-16.146-1.076-5.382-3.23-9.688-5.382-16.146l-9.688-20.453c-3.23-7.534-6.458-15.070-8.612-23.681s-3.23-18.299-2.153-27.988c1.076-19.377 10.765-36.6 21.529-49.517 3.23-4.307 9.688-5.382 15.070-4.307zM454.67 754.655c7.534 2.153 10.765 10.765 8.612 18.299v1.076c-4.307 12.917-7.534 24.758-6.458 35.523s4.307 21.529 9.688 35.523c2.153 6.458 5.382 12.917 8.612 20.453 2.153 7.534 5.382 18.299 5.382 27.988 1.076 9.688-1.076 19.377-4.307 27.988-1.076 4.307-3.23 8.612-6.458 12.917-2.153 4.307-5.382 7.534-8.612 11.841-3.23 3.23-7.534 5.382-12.917 4.307-6.458-2.153-10.765-8.612-9.688-16.146l1.076-5.382c0-1.076 2.153-5.382 2.153-7.534 1.076-3.23 1.076-5.382 1.076-8.612 1.076-5.382 0-10.765 0-16.146s-2.153-9.688-4.307-16.146l-9.688-20.453c-3.23-7.534-6.458-15.070-8.612-23.681s-3.23-18.299-2.153-27.988c1.076-19.377 10.765-36.6 21.529-49.517 3.23-4.307 9.688-5.382 15.070-4.307zM548.322 736.355c7.534 2.153 10.765 10.765 8.612 18.299v1.076c-4.307 12.917-7.534 24.758-6.458 35.523s4.307 21.529 9.688 35.523c2.153 6.458 5.382 12.917 8.612 20.453 3.23 8.612 6.458 18.299 6.458 27.988 1.076 9.688-1.076 19.377-4.307 29.064-1.076 4.307-3.23 8.612-6.458 12.917-2.153 4.307-5.382 7.534-8.612 11.841-3.23 3.23-7.534 5.382-12.917 4.307-7.534-2.153-11.841-8.612-9.688-16.146l1.076-5.382c0-2.153 2.153-5.382 2.153-7.534 1.076-3.23 1.076-5.382 1.076-8.612 1.076-5.382 0-10.765 0-16.146-1.076-5.382-3.23-9.688-5.382-16.146l-9.688-20.453c-3.23-7.534-6.458-15.070-8.612-23.681s-3.23-18.299-2.153-27.988c1.076-19.377 10.765-36.6 21.529-49.517 3.23-5.382 8.612-6.458 15.070-5.382zM758.232 51.729c-15.070 59.205-64.587 102.263-124.869 110.875l-53.822 7.534-16.146 46.288c43.059 30.141 76.428 76.428 89.347 133.481 15.070 7.534 39.829 29.064 39.829 79.658 0 37.676-6.458 59.205-18.299 71.046-2.153 3.23-6.458 4.307-9.688 6.458-11.841 114.104-103.339 201.297-215.292 201.297s-202.374-87.193-215.292-201.297c-3.23-2.153-6.458-3.23-8.612-5.382-13.995-12.917-19.377-35.523-19.377-72.121 0-50.593 24.758-71.046 39.829-79.658 12.917-55.975 45.21-102.263 89.347-133.481l-16.146-46.288-53.822-7.534c-60.282-8.612-109.799-51.671-124.869-110.875l-22.606-86.116c-2.153-9.688 0-19.377 5.382-26.911s15.070-11.841 24.758-11.841h602.815c9.688 0 18.299 4.307 24.758 11.841s8.612 17.223 5.382 26.911l-22.606 86.116zM592.457 297.162c-11.841-2.153-23.681-4.307-35.523-5.382v60.282c21.529 3.23 43.059 6.458 62.436 10.765-5.382-23.681-13.995-46.288-26.911-65.663zM241.532 428.489c0 22.606 2.153 33.37 5.382 39.829 3.23 0 5.382 0 5.382 0 0-6.458 4.307-29.064 9.688-29.064h24.758c5.382 0 9.688 5.382 9.688 10.765 0 0 5.382 64.587 10.765 106.569 1.076 9.688 9.688 16.146 17.223 13.995 31.218-7.534 76.428-11.841 125.945-11.841s93.651 5.382 125.945 11.841c8.612 2.153 16.146-4.307 17.223-13.995 5.382-41.982 10.765-106.569 10.765-106.569 0-5.382 4.307-10.765 9.688-10.765h24.758c5.382 0 9.688 22.606 9.688 29.064 0 0 2.153 0 5.382 0 2.153-6.458 5.382-17.223 5.382-39.829 0-12.917-2.153-22.606-5.382-29.064-52.747-18.299-125.945-29.064-202.374-29.064-77.504 0-149.627 10.765-202.374 29.064-5.382 7.534-7.534 16.146-7.534 29.064zM279.208 363.902c19.377-4.307 39.829-8.612 62.436-10.765v-61.358c-12.917 2.153-24.758 3.23-35.523 6.458-11.841 18.299-21.529 40.906-26.911 65.663zM329.801 267.020c36.6-5.382 77.504-8.612 119.487-8.612s82.886 4.307 120.562 9.688c-31.218-33.37-74.275-53.822-121.64-53.822-45.21 0-87.193 20.453-118.411 52.747zM350.254 151.84l16.146 46.288c25.835-11.841 53.822-19.377 83.964-19.377 29.064 0 57.053 7.534 82.886 19.377l16.146-46.288c-60.282-43.059-139.939-43.059-199.144 0zM415.918 442.482c0-16.646-13.495-30.141-30.141-30.141s-30.141 13.495-30.141 30.141c0 16.646 13.495 30.141 30.141 30.141s30.141-13.495 30.141-30.141zM544.017 442.482c0-16.646-13.495-30.141-30.141-30.141s-30.141 13.495-30.141 30.141c0 16.646 13.495 30.141 30.141 30.141s30.141-13.495 30.141-30.141z" />
<glyph unicode="&#xe916;" glyph-name="symptom-sick" d="M376.81 333.713c-28.816 0-54.391 15.090-65.163 38.447-2.752 5.994-0.136 13.088 5.857 15.852 6.008 2.776 13.082 0.136 15.856-5.853 6.756-14.679 24.223-24.543 43.446-24.543 19.235 0 36.701 9.861 43.472 24.543 2.752 5.989 9.839 8.629 15.845 5.853 5.994-2.764 8.61-9.858 5.857-15.852-10.774-23.357-36.347-38.447-65.176-38.447zM712.346 372.166c2.752 5.994 0.136 13.088-5.857 15.845-6.020 2.764-13.095 0.128-15.856-5.857-6.756-14.679-24.211-24.535-43.446-24.535s-36.69 9.858-43.446 24.535c-2.752 5.989-9.815 8.622-15.856 5.857-5.994-2.755-8.61-9.85-5.857-15.845 10.748-23.358 36.323-38.452 65.163-38.452s54.415 15.097 65.163 38.452zM822.121 354.471c3.426 6.505 5.393 15.042 5.516 24.039 0.269 18.137-14.864 44.489-15.515 45.6l-5.257 9.090-5.527-8.929c-0.676-1.094-16.582-26.993-16.852-45.127-0.306-20.717 8.746-36.481 21.040-36.672h0.012c0.060 0 0.136 0 0.208 0 6.484 0 12.296 4.255 16.373 12.001zM805.723 355.048c-3.183 0.049-8.882 9.163-8.66 23.908 0.124 8.188 4.999 19.87 9.421 28.657 4.163-8.904 8.695-20.717 8.574-28.926-0.098-6.953-1.572-13.64-4.053-18.345-1.941-3.668-4.030-5.295-5.269-5.295h-0.012zM790.455 439.848c0.208 13.601-10.466 32.415-11.681 34.515l-5.269 9.090-5.516-8.929c-1.277-2.062-12.479-20.555-12.688-34.16-0.098-6.898 1.215-13.504 3.723-18.605 3.107-6.363 8.010-10.059 13.425-10.139v0c0.060 0 0.124 0 0.184 0 9.938 0 17.577 12.086 17.825 28.227zM777.876 440.031c-0.148-9.777-3.758-15.218-5.23-15.809-1.461 0.639-4.913 6.19-4.766 15.955 0.071 4.856 2.568 11.544 5.257 17.314 2.518-5.835 4.815-12.585 4.741-17.462zM895.302 513.847v-391.713h-165.282c-10.011-10.059-20.329-19.649-31.085-28.427-46.777-38.164-114.604-58.876-185.75-56.988l-2.37-0.005c-3.021-0.081-6.032-0.124-9.041-0.124-67.314 0-131.26 20.597-176.009 57.117-10.763 8.782-21.081 18.371-31.091 28.427h-165.974v391.713h0.17c1.804 190.129 144.621 374.291 379.515 314.651 0.463-0.119 0.942-0.038 1.411-0.057 0.467 0.019 0.945-0.064 1.413 0.057 229.354 59.492 356.271-98.763 383.26-314.651h0.841zM271.369 268.439c-12.525 5.016-33.131 14.91-61.935 34.369 7.219-29.43 17.913-61.275 43.587-99.652v6.999c0 21.658 6.814 41.731 18.35 58.283zM747.758 210.154c0 43.219-35.156 78.374-78.369 78.374h-314.087c-43.224 0-78.38-35.156-78.38-78.374v-31.777c19.235-24.974 40.745-47.217 63.948-66.159 42.388-34.578 104.2-53.542 169.99-51.609l0.344 0.005 1.511-0.005c67.031-1.853 128.719 17.031 171.109 51.615 23.192 18.923 44.687 41.162 63.937 66.153v31.777zM831.836 314.43c-37.304-27.134-63.629-40.075-78.483-46.040 11.511-16.546 18.309-36.602 18.309-58.238v-15.561c25.275 36.025 45.882 76.367 60.175 119.838zM855.029 458.981c0 13.442-0.621 26.149-1.446 38.615-46.692-10.169-91.385-13.436-133.746-10.664v-46.522c0-3.475-2.813-6.288-6.288-6.288s-6.288 2.813-6.288 6.288v47.525c-4.209 0.401-8.42 0.797-12.578 1.325v-36.272c0-3.475-2.813-6.288-6.288-6.288s-6.288 2.813-6.288 6.288v38.191c-4.911 0.783-9.843 1.508-14.679 2.467v-32.274c0-3.475-2.813-6.288-6.288-6.288s-6.288 2.813-6.288 6.288v35.147c-87.203 20.333-161.591 69.483-217.681 143.207-120.357-150.574-158.093-167.345-250.333-188.308-0.878-12.897 10.476-95.433 13.625-109.011 0.36-1.553 0.698-3.116 1.050-4.669 50.143-37.294 79.671-47.904 87.126-50.187 17.924 15.46 41.198 24.881 66.667 24.881h314.087c25.47 0 48.746-9.421 66.667-24.887 8.428 2.587 44.609 15.701 106.412 65.106 8.090 34.215 12.559 69.843 12.559 106.329z" />
<glyph unicode="&#xe917;" glyph-name="symptom-sore-throat-new" d="M317.103 559.61c6.309-2.729 12.448-3.581 17.733-3.581 15.687 0.512 25.407 5.456 36.491 11.425 0 0 0 0 0 0s0 0 0 0c2.898 1.706 5.798 3.581 8.867 5.456 15.006 9.719 32.057 23.361 53.713 42.63 25.918 23.191 57.805 54.395 97.195 96.001 10.913 11.425 12.618 28.476 5.456 41.607-8.014-1.875-16.37-2.898-25.066-2.898-12.618 0-24.554 2.217-35.809 6.139-36.661-38.366-66.161-67.184-89.181-87.816-5.968-5.286-11.595-10.231-16.71-14.494l-1.535 11.595c3.581 3.069 7.502 6.479 11.595 10.231 23.872 21.314 52.69 49.791 85.941 84.406-6.65 3.069-12.96 6.821-18.757 10.913-4.092 1.706-8.526 2.558-13.3 2.558v0c-12.96-0.171-23.191-4.092-31.887-8.696-15.176-8.185-27.624-19.439-39.73-32.228-18.075-19.098-34.615-42.118-47.574-64.456-6.479-11.083-11.937-21.997-16.199-32.739-4.092-10.913-7.502-20.803-7.673-34.274 0.171-7.673 1.194-18.416 9.719-29.499 4.263-5.116 10.402-9.719 16.71-12.277zM550.711 737.289c0.341-12.106-4.092-23.531-12.448-32.399-37.684-39.73-70.594-72.129-97.877-96.512-19.439-17.393-35.126-30.011-49.109-39.56v-577.883c0-30.352 24.554-54.907 54.907-54.907s54.907 24.554 54.907 54.907v401.057h20.633v-401.057c0-30.352 24.554-54.907 54.907-54.907s54.907 24.554 54.907 54.907v666.212c2.558-5.456 5.286-11.595 7.844-18.757 12.448-34.786 23.020-91.568 23.020-180.578 0-24.554-0.852-51.326-2.558-80.996-1.194-19.61 13.812-36.491 33.422-37.514 0.682 0 1.364 0 2.046 0 18.757 0 34.274 14.664 35.468 33.422 1.706 30.864 2.558 58.999 2.558 85.088-0.171 134.027-21.656 208.202-50.814 252.878-14.664 22.168-31.716 36.32-47.403 44.164-15.006 7.502-28.306 9.379-36.32 9.379-0.682 0-1.194 0.171-1.875 0.171h-32.228c-5.968-3.41-12.448-6.139-19.098-8.356 3.41-5.798 4.945-12.106 5.116-18.757zM611.416 860.061c0-55.186-44.737-99.923-99.923-99.923s-99.923 44.737-99.923 99.923c0 55.186 44.737 99.923 99.923 99.923s99.923-44.737 99.923-99.923zM363.483 829.368l-12.96-13.471c-2.217-2.217-1.194-5.968 2.046-6.65l53.372-13.641c4.092-1.023 6.991 4.775 3.069 7.162l-25.407 15.347 14.153 14.494c1.875 2.046 1.364 5.116-1.194 6.479l-46.040 25.066c-1.535 1.023-3.581 0.682-4.775-0.852l-14.494-15.006c-1.875-2.046-1.194-5.456 1.194-6.479l31.034-12.448zM335.519 763.719l-0.682-18.757c-0.171-3.069 3.069-5.116 5.968-3.581l48.768 25.407c3.752 2.046 2.046 8.356-2.558 7.502l-28.988-5.627 0.852 20.291c0 2.729-2.387 4.604-5.116 3.922l-51.155-12.106c-1.875-0.171-3.24-1.875-2.898-3.752l-0.682-20.803c0-2.729 2.729-4.945 5.116-3.922l31.376 11.425zM683.374 845.056c2.217 1.023 2.558 4.604 0.682 6.479l-15.687 13.641c-1.194 1.364-3.41 1.706-4.775 0.512l-43.823-29.158c-2.387-1.535-2.558-4.604-0.682-6.479l15.347-13.3-23.872-17.393c-3.752-2.729-0.341-8.185 3.752-6.821l52.007 18.416c3.069 1.023 3.922 4.945 1.535 6.821l-14.153 12.277 29.67 15.006zM713.896 758.092c2.387-0.852 4.945 1.535 4.945 4.263l-2.046 20.803c0.171 1.875-1.364 3.41-3.24 3.581l-51.838 8.867c-2.729 0.512-4.945-1.535-4.945-4.263l2.046-20.121-29.329 3.752c-4.604 0.512-5.968-5.798-2.046-7.502l50.303-22.337c3.069-1.364 6.139 0.852 5.798 3.922l-1.875 18.587 32.228-9.549z" />
<glyph unicode="&#xe918;" glyph-name="mobile" d="M128 21.334c0-47.146 38.186-85.334 85.334-85.334h576c47.146 0 85.334 38.186 85.334 85.334l-0.002 853.332c0 47.146-38.186 85.334-85.334 85.334h-575.998c-47.148 0-85.334-38.186-85.334-85.334v-853.332zM281.6 853.334h439.466c26.028 0 46.934-20.908 46.934-46.934v-524.8c0-26.026-20.906-46.934-46.934-46.934h-439.466c-26.026 0-46.934 20.906-46.934 46.934v524.8c0 26.026 20.908 46.934 46.934 46.934zM448 96c0 29.44 23.894 53.334 53.334 53.334s53.334-23.894 53.334-53.334-23.894-53.334-53.334-53.334-53.334 23.894-53.334 53.334z" />
<glyph unicode="&#xe919;" glyph-name="phone" d="M513.664 1.728c87.446-87.68 229.12-87.68 316.566 0 54.422 54.4 75.094 129.706 61.674 200.106 23.040 11.734 43.712 25.386 60.992 38.186 1.92 1.494 10.454 7.466 12.586 9.174 9.622 7.894 15.786 19.84 15.786 33.302 0 12.8-5.546 24.32-14.506 32l-176 145.066c-7.254 5.974-16.618 9.6-26.88 9.6-11.542 0-21.994-4.48-29.674-11.734-3.008-2.986-29.418-30.080-29.418-30.080-18.368-18.346-48-18.346-66.368 0l-179.606 179.84c-18.346 18.346-18.346 48.214 0 66.56l29.226 29.226c7.68 7.68 12.16 18.346 12.16 29.846 0 11.52-4.48 21.782-11.734 29.44l-150.826 182.186c-7.894 9.386-19.84 15.574-33.066 15.574-14.080 0-26.454-6.826-34.346-17.28l-2.56-3.414c-32.854-44.374-75.734-114.774-75.734-180.906 0-182.186 406.208-587.734 586.666-587.734 3.414 0 6.826 0.214 10.048 0.214 3.2-33.494-8.128-68.032-33.706-93.866-45.866-45.846-120.128-45.846-165.994 0l-294.592 302.72c-62.506 62.506-163.626 62.506-226.134 0-62.506-62.506-62.506-163.626 0-226.134l96.64-95.36c20.906-20.714 54.614-20.714 75.52 0 20.694 20.886 20.694 54.614 0 75.498l-96.854 95.168c-20.694 20.886-20.694 54.614 0 75.498 20.906 20.714 54.614 20.714 75.52 0l294.614-302.696z" />
<glyph unicode="&#xe91a;" glyph-name="checkbox-unchecked" d="M896 960h-768c-70.4 0-128-57.6-128-128v-768c0-70.4 57.6-128 128-128h768c70.4 0 128 57.6 128 128v768c0 70.4-57.6 128-128 128zM896 64h-768v768h768v-768z" />
<glyph unicode="&#xe91b;" glyph-name="checkbox-checked" d="M896 960h-768c-70.4 0-128-57.6-128-128v-768c0-70.4 57.6-128 128-128h768c70.4 0 128 57.6 128 128v768c0 70.4-57.6 128-128 128zM448 165.49l-237.254 237.256 90.51 90.508 146.744-146.744 306.746 306.746 90.508-90.51-397.254-397.256z" />
<glyph unicode="&#xe91c;" glyph-name="env-church" d="M1015.873 397.264l-267.978 143.193v89.19l29.048-24.957c3.274-2.454 6.955-4.092 10.638-4.092 4.501 0 9.411 2.045 12.274 5.728 5.728 6.955 4.91 17.184-2.045 22.911l-274.523 233.201c0 0 0 0-0.409 0-0.409 0.409-0.818 0.409-1.227 0.818s-0.818 0.409-1.227 0.818c0 0-0.409 0-0.409 0.409-0.409 0-0.818 0.409-1.227 0.409s-0.818 0.409-1.227 0.409c0 0-0.409 0-0.409 0-0.409 0-0.818 0-0.818 0.409-0.409 0-0.818 0.409-1.636 0.409-0.409 0-0.409 0-0.818 0s-0.409 0-0.818 0-0.818 0-1.636 0c-0.409 0-0.409 0-0.818 0s-0.409 0-0.818 0-0.818 0-1.636-0.409c-0.409 0-0.818 0-0.818-0.409 0 0-0.409 0-0.409 0-0.409 0-0.818-0.409-1.227-0.409s-0.818-0.409-1.227-0.409c0 0-0.409 0-0.409-0.409-0.409-0.409-0.818-0.409-1.227-0.818s-0.818-0.409-1.227-0.818c0 0 0 0-0.409 0l-274.523-233.201c-6.955-5.728-7.773-16.366-2.045-22.911 3.274-3.683 7.773-5.728 12.274-5.728 3.683 0 7.364 1.227 10.638 4.092l29.048 24.957v-89.19l-267.978-143.193c-7.773-4.092-11.047-14.319-6.546-22.093 2.863-5.728 8.591-8.591 14.319-8.591 2.454 0 5.319 0.818 7.773 2.045l31.093 16.775v-339.164c0-9 7.364-16.366 16.366-16.366h879.619c9 0 16.366 7.364 16.366 16.366v339.164l31.093-16.775c2.454-1.227 4.91-2.045 7.773-2.045 5.728 0 11.456 3.274 14.319 8.591 6.137 8.182 2.863 18.002-4.91 22.093zM452.916 655.831v32.73h43.776v38.048h32.73v-38.048h43.776v-32.73h-43.776v-90.008h-32.73v90.008h-43.776zM189.030 382.944h119.464v-94.916h-119.464v94.916zM717.62 382.944h119.464v-94.916h-119.464v94.916zM415.277 310.939c0 54.005 43.776 97.781 97.781 97.781s97.781-43.776 97.781-97.781v-248.749h-195.562v248.749z" />
<glyph unicode="&#xe91d;" glyph-name="env-classroom" d="M96.508 756.123c0-51.030 0-102.163 0-153.193 0-46.959 0-93.92 0-140.879 0-28.593 0-57.291 0-85.885 0-8.453-0.73-16.906 4.695-24.211 7.096-9.496 17.323-9.6 27.759-9.6 12.001 0 24.001 0 36.107 0 4.383 0 8.766-0.314 13.148 0 5.427 0.314 10.227 3.34 15.549 4.801 11.479 3.236 23.793 4.070 35.586 2.4 5.844-0.835 11.583-2.191 17.114-4.174 2.4-0.835 5.113-2.504 7.617-3.026 3.13-0.626 7.096 0 10.332 0 7.827 0 15.549 0 23.376 0 48.108 0 96.32 0 144.427 0 14.087 0 28.698-1.253 42.786 0 2.087 0.208 1.775 0.104 4.070 0.939 11.061 3.862 21.497 6.888 33.289 7.096 11.479 0.208 22.958-1.983 33.603-6.156 2.609-1.043 3.548-1.565 5.948-1.879 13.67-1.461 28.28 0 41.95 0 24.419 0 48.734 0 73.153 0 23.793 0 47.586 0 71.38 0 7.931 0 15.862 0 23.793 0 3.444 0 7.513-0.626 10.853 0 5.323 0.939 5.948 2.087 5.948 6.47 0 3.026 0 6.052 0 9.183 0 1.565 0.835 5.948 0 7.305-0.73 1.253-0.418 0.522-2.4 0.835-6.784 1.147-14.715 0-21.601 0-31.932 0-63.97 0-95.903 0-47.169 0-94.232 0-141.401 0-51.446 0-102.998 0-154.446 0-45.916 0-91.728 0-137.645 0-29.532 0-58.961 0-88.493 0-3.652 0-7.305 0-10.957 0-0.939 0-4.591-0.626-5.427 0-1.357 0.939-0.522 6.574-0.522 8.557 0 27.967 0 55.934 0 83.796 0 46.333 0 92.772 0 139.106 0 51.342 0 102.685 0 154.029 0 42.056 0 84.214 0 126.27 0 13.462 0 26.923 0 40.281 0 3.966 0 7.931 0 11.793 0 1.043-0.626 4.905 0 5.74 0.835 1.043 5.217 0.418 6.784 0.418 8.245 0 16.592 0 24.837 0 31.411 0 62.821 0 94.338 0 45.082 0 90.162 0 135.244 0 51.134 0 102.373 0 153.507 0 50.403 0 100.808 0 151.107 0 42.056 0 84.11 0 126.166 0 26.298 0 52.595 0 78.893 0 3.13 0 12.314 1.669 15.131 0 2.4-1.461 0.835-13.148 0.835-16.28 0-45.604 0-91.102 0-136.705 0-20.663 0-41.429 0-62.092 0-5.217-0.626-10.957 0-16.176 0.104-0.626-0.314-1.983 0-2.609 1.043-1.879 9.496-4.591 11.689-5.948 4.279-2.609 8.349-5.74 12.105-9.079 0 10.332 0 20.663 0 30.993 0 44.664 0 89.329 0 133.887 0 27.967 0 55.934 0 83.902 0 27.341-29.22 23.793-47.481 23.793-29.116 0-58.334 0-87.45 0-43.515 0-87.032 0-130.653 0-50.925 0-101.955 0-152.88 0-50.717 0-101.433 0-152.15 0-43.515 0-87.136 0-130.653 0-28.802 0-57.708 0-86.51 0-18.784 0-45.604 3.236-46.543-23.897-0.626-18.263 0-36.629 0-54.89 0-41.429 0-83.171 0-124.913zM883.241 708.015c0 28.906 0 57.812 0 86.719 0 37.463 0 74.928 0 112.286 0 4.591 1.357 5.635-2.4 6.156-5.323 0.73-11.375 0-16.697 0-24.419 0-48.734 0-73.153 0-37.255 0-74.51 0-111.661 0-44.143 0-88.285 0-132.322 0-45.708 0-91.415 0-137.123 0-41.324 0-82.649 0-123.973 0-31.203 0-62.404 0-93.606 0-15.34 0-30.681 0-46.021 0-0.73 0-1.357 0-2.087 0 0-46.543 0-93.189 0-139.732 0-85.363 0-170.725 0-256.088 0-31.724 0-63.449 0-95.171 0-8.661 0-17.323 0-25.984 0-1.565-0.626-6.052 0.418-6.888 1.669-1.357 10.227 0 12.21 0 9.288 0 18.471 0 27.759 0 30.471 0 60.944 0 91.519 0 84.736 0 169.577 0 254.313 0 70.127 0 140.357 0 210.484 0 8.974 0 17.949 0 26.923 0 1.775 0 9.81-1.253 11.271 0 0.835 0.73 0.208 5.74 0.208 6.992 0 8.661 0 17.427 0 26.088 0 19.202 0 38.298 0 57.5 0 3.966 1.147 4.905-2.087 5.635-6.574 1.565-15.444 0-22.228 0-19.202 0-38.402 0-57.604 0-9.706 0-19.618 1.357-27.341 7.617-6.47 5.323-9.392 12.836-12.732 20.245-6.052 13.566-12.522 27.027-18.784 40.489-14.715 31.62-30.054 63.135-44.143 95.067-4.174 9.288-4.487 19.514 0.835 28.489 7.827 13.358 25.15 18.471 39.028 11.479 12.94-6.574 17.845-23.272 23.584-35.586 8.87-19.096 17.741-38.090 26.506-57.187 3.548-7.617 6.992-15.131 10.54-22.75 0.835-1.775 2.191-7.2 3.862-8.245 2.087-1.253 8.974 0 11.271 0 8.453 0 16.906 0 25.462 0 21.289 0 42.577 0 63.865 0 10.644 0 21.393 0 32.036 0-29.532 21.601-40.595 61.778-25.88 95.381 12.94 30.471 44.664 49.777 77.744 47.481zM568.611 700.188c0-5.217 0-10.54 0-15.758-36.002 0-71.901 0-107.903 0-50.925 0-101.851 0-152.776 0-4.279 0-11.583-1.461-15.653 0-0.939 0.314-1.147-0.208-1.669 0.418-0.73 0.939 0 5.844 0 6.992 0 3.757 0 7.617 0 11.375 0 5.844-0.314 5.009 5.009 5.009 6.678 0 13.358 0 20.036 0 53.013 0 106.025 0 159.038 0 23.376 0 46.855 0 70.231 0 6.47 0 12.94 0 19.41 0 6.156-0.104 4.279-1.461 4.279-8.035zM714.186 797.134c0-3.34 0-6.574 0-9.914-52.386 0-104.668 0-157.055 0-77.536 0-154.968 0-232.503 0-9.288 0-18.575 0-27.863 0-1.043 0-4.905-0.626-5.74 0-1.775 1.357-0.418 11.271-0.418 13.879 0 2.818-1.253 8.766 0.939 9.914 1.253 0.626 4.905 0 6.366 0 9.914 0 19.932 0 29.846 0 77.744 0 155.49 0 233.234 0 36.524 0 72.945 0 109.468 0 10.853 0 21.81 0 32.664 0 2.818 0 9.6 1.043 11.061-0.835s0-10.644 0-13.044zM900.252 553.465c-8.453-0.939-16.28-3.548-24.941-3.236-7.096 0.208-13.462 2.504-20.349 3.236-2.818 0.314-5.948 0-8.87 0-16.070 0-32.142 0-48.212 0-33.289 0-66.683-0.522-100.076 0-3.652 0.104-6.262 0-8.661 3.757-2.191 3.444-3.548 7.723-5.323 11.375-7.617 16.384-15.236 32.768-22.854 49.256-7.2 15.444-14.297 30.785-21.497 46.229-1.669 3.548-3.13 7.723-5.844 10.644-10.332 11.375-29.95 4.591-30.889-10.853-0.626-9.079 7.096-20.349 10.749-28.176 7.931-17.114 15.862-34.229 23.897-51.446 7.827-16.906 15.653-33.811 23.48-50.717 3.966-8.661 8.245-22.54 14.715-29.428 9.392-9.914 30.471-6.574 42.786-6.574 18.992 0 37.985 0 56.873 0 3.548 0 9.496 1.147 12.836-0.835 3.966-2.4 2.818-8.974 2.818-13.148 0-15.131 0-30.367 0-45.498 0-29.846 0-59.795 0-89.641 39.238 8.766 80.354-11.375 97.781-47.377 16.802-34.75 8.245-77.536-20.557-103.312 11.061-0.208 22.123-2.922 32.142-7.827 9.706-4.801 18.263-11.583 25.15-19.828 7.513-9.079 10.853-18.784 15.236-29.532 1.461-3.548 1.669-2.713 5.74-2.713 3.652 0 7.409 0 11.061 0 1.775 0 5.323-0.73 6.156 0.522 1.357 1.983 0 10.122 0 12.522 0 8.557 0 17.114 0 25.672 0 58.648 0 117.191 0 175.839 0 45.082 0 90.266 0 135.348 0 0.626-0.418 3.13 0 3.652 0.522 0.626 10.436 0.939 11.271 0.208 1.775-1.357 0.626-8.661 0.626-11.375 0-25.15 0-50.299 0-75.553 0-46.125 0-92.145 0-138.271 16.906 1.043 33.393 8.661 39.134 25.566 2.191 6.47 2.4 13.148 2.4 19.828 0 58.856 0 117.608 0 176.465 0 13.67-4.383 27.133-12.418 38.194-13.983 19.306-35.272 27.027-58.334 27.027-15.027 0-30.993 1.565-46.021 0zM902.235 691.631c-30.681 12.105-66.683-0.626-82.963-29.324-14.715-25.984-10.122-59.483 10.957-80.562 19.202-19.202 48.838-24.941 73.884-14.297 24.419 10.436 40.699 35.168 40.699 61.674-0.104 27.341-17.323 52.491-42.577 62.509zM4.676 92.528c0-5.635 0-11.271 0-16.906 0-1.043-0.626-5.323 0.104-6.052s5.948 0 6.888 0c5.113 0 10.227 0 15.34 0 12.522 0 25.15 0 37.673 0 4.801 0 9.496 0 14.297 0 0.73 0 4.591-0.522 5.217 0 0.939 0.939 0 7.723 0 8.974 0 5.948 0 12.001 0 17.949 0 9.706-0.418 19.618 0.208 29.324-22.228 0-44.455 0-66.683 0-3.13 0-7.931 0.939-10.957 0-2.609-0.835-1.147 0.835-1.983-1.669-1.253-3.34 0-9.6 0-13.148-0.104-6.052-0.104-12.314-0.104-18.471zM351.761 69.57c1.357-0.835 5.74 0 7.409 0 3.026 0 5.948 0 8.974 0 1.775 0 10.957-1.253 12.314 0 0.835 0.835 0 7.305 0 8.557 0 6.156 0 12.314 0 18.471 0 9.706-0.418 19.618 0.208 29.324-10.018 0-20.036 0-30.054 0 0.73-11.479 0.208-23.167 0.208-34.646-0.208-4.279-2.296-19.828 0.939-21.706zM648.025 69.57c1.357-0.835 5.74 0 7.409 0 3.026 0 5.948 0 8.974 0 1.775 0 10.957-1.253 12.314 0 0.835 0.835 0 7.305 0 8.557 0 6.156 0 12.314 0 18.471 0 9.706-0.418 19.618 0.208 29.324-10.018 0-20.036 0-30.054 0 0.73-11.479 0.208-23.167 0.208-34.646-0.208-4.279-2.296-19.828 0.939-21.706zM1019.425 125.921c-25.462 0-50.925 0-76.389 0 1.043-16.176 0.208-32.558 0.208-48.734 0-1.147-0.73-6.262 0-7.096 0.522-0.626 0.418 0 1.461-0.418 4.070-1.565 12.105 0 16.384 0 16.592 0 33.185 0 49.777 0 1.461 0 7.723-0.835 8.661 0.208 0.626 0.73 0 4.905 0 5.844 0 3.548 0 6.992 0 10.54-0.104 13.148-0.104 26.402-0.104 39.655zM96.195 4.556c0.418-0.418 2.922 0 3.444 0 7.2 0 14.297 0 21.497 0 26.611 0 53.117 0 79.727 0 29.324 0 58.544 0 87.868 0 10.853 0 21.601 0 32.454 0 3.548 0 7.096 0 10.644 0 1.357 0 4.695-0.626 5.844 0 2.087 1.043 1.043 10.436 1.043 13.044 0 12.94 0 25.984 0 38.924 0 21.497 0 42.89 0 64.386 0 11.271-2.922 22.436-8.557 32.142-10.749 18.784-30.785 31.307-52.491 32.558-5.74 0.314-12.836 1.147-18.471 0.104-4.801-0.835-10.018-4.591-14.819-6.052-5.74-1.879-11.689-3.13-17.741-3.757-13.358-1.357-26.923 0.208-39.446 4.905-4.383 1.669-8.453 4.383-13.044 5.009-3.026 0.418-6.262 0-9.288 0-19.724 0-38.090-6.156-51.656-20.975-19.828-21.601-17.114-49.048-17.114-75.971 0-25.88 0-51.76 0-77.536-0.104-1.253-0.418-6.262 0.104-6.784zM224.76 338.18c-33.393 3.236-65.743-16.592-77.85-47.899-12.21-31.307-1.669-67.83 25.15-87.868 21.079-15.758 49.673-19.41 74.092-9.392 28.071 11.479 46.855 39.655 46.855 69.919 0 38.402-30.054 71.484-68.248 75.24zM392.46 4.556c0.418-0.418 2.922 0 3.444 0 7.2 0 14.297 0 21.497 0 26.611 0 53.117 0 79.727 0 29.324 0 58.544 0 87.868 0 10.853 0 21.601 0 32.454 0 3.548 0 7.096 0 10.644 0 1.357 0 4.695-0.626 5.844 0 2.087 1.043 1.043 10.436 1.043 13.044 0 12.94 0 25.984 0 38.924 0 21.497 0 42.89 0 64.386 0 11.271-2.922 22.436-8.557 32.142-10.749 18.784-30.785 31.307-52.491 32.558-5.74 0.314-12.836 1.147-18.471 0.104-4.801-0.835-10.018-4.591-14.819-6.052-5.74-1.879-11.689-3.13-17.741-3.757-13.358-1.357-26.923 0.208-39.446 4.905-4.383 1.669-8.453 4.383-13.044 5.009-3.026 0.418-6.262 0-9.288 0-19.724 0-38.090-6.156-51.656-20.975-19.828-21.601-17.114-49.048-17.114-75.971 0-25.88 0-51.76 0-77.536-0.104-1.253-0.418-6.262 0.104-6.784zM478.447 195.944c49.464-26.088 110.825 11.061 110.825 66.891 0 44.455-39.759 80.040-83.902 75.136-38.82-4.279-68.562-38.716-67.309-77.744 0.939-26.819 16.592-51.656 40.385-64.282zM688.723 4.556c0.418-0.418 2.922 0 3.444 0 7.2 0 14.297 0 21.497 0 26.611 0 53.117 0 79.727 0 29.324 0 58.544 0 87.868 0 10.853 0 21.601 0 32.454 0 3.548 0 7.096 0 10.644 0 1.357 0 4.695-0.626 5.844 0 2.087 1.043 1.043 10.436 1.043 13.044 0 12.94 0 25.984 0 38.924 0 21.497 0 42.89 0 64.386 0 11.271-2.922 22.436-8.557 32.142-10.749 18.784-30.785 31.307-52.491 32.558-5.74 0.314-12.836 1.147-18.471 0.104-4.801-0.835-10.018-4.591-14.819-6.052-5.74-1.879-11.689-3.13-17.741-3.757-13.254-1.357-26.715 0.208-39.238 4.801-4.487 1.669-8.661 4.487-13.358 5.113-3.026 0.418-6.262 0-9.288 0-19.724 0-38.090-6.156-51.656-20.975-19.828-21.601-17.114-49.048-17.114-75.971 0-25.88 0-51.76 0-77.536 0-1.253-0.314-6.262 0.208-6.784zM838.682 193.022c27.967 11.479 46.855 39.655 46.855 69.919 0 45.29-41.22 81.084-85.989 74.928-30.159-4.174-55.622-26.923-62.927-56.561-7.617-30.575 5.009-63.343 30.993-80.98 20.663-14.087 47.795-16.906 71.066-7.305zM1019.425-50.542c0 6.156 0 12.21 0 18.367 0 8.245 0 16.592 0 24.837-2.4 0-4.905 0-7.305 0-18.888 0-37.881 0-56.769 0-33.915 0-67.83 0-101.747 0-44.247 0-88.493 0-132.844 0-50.509 0-101.016 0-151.628 0-51.968 0-103.834 0-155.802 0-49.36 0-98.719 0-147.976 0-42.056 0-84.11 0-126.166 0-30.263 0-60.63 0-90.894 0-9.392 0-18.68 0-28.071 0-3.862 0-10.54 1.357-14.193 0-1.461-0.522-0.835 0.418-1.461-0.626-1.253-1.775 0-9.079 0-11.271 0-6.052 0-12.105 0-18.159 0-5.948 0-11.897 0-17.845 0-1.147-0.835-7.409 0-8.245 0.314-0.314 1.461 0.104 1.879 0 4.279-1.147 10.644 0 15.027 0 9.6 0 19.202 0 28.802 0 30.575 0 61.152 0 91.623 0 42.264 0 84.632 0 126.896 0 49.464 0 98.929 0 148.392 0 51.968 0 103.938 0 155.906 0 50.403 0 100.808 0 151.315 0 44.247 0 88.493 0 132.636 0 33.393 0 66.891 0 100.286 0 18.471 0 36.941 0 55.412 0 2.504 0 5.635-0.73 6.574 0.939 1.461 2.191 0.104 9.288 0.104 12.001z" />
<glyph unicode="&#xe91e;" glyph-name="env-home" d="M976.8 520.535c-1.078 1.078-2.156 2.156-3.236 4.314l-418.425 417.346c-23.725 23.725-62.549 23.725-86.273 0l-163.918-162.84v93.822c0 9.706-7.548 17.254-17.254 17.254h-101.371c-9.706 0-17.254-7.548-17.254-17.254v-230.781l-118.626-118.626c-1.078-1.078-2.156-2.156-3.236-4.314-37.744-44.215 28.039-102.449 69.019-61.469l336.465 336.465c18.333 18.333 43.137 26.96 67.941 24.804 20.49-2.156 38.823-11.862 52.843-25.882l334.308-334.308c40.98-39.901 106.763 17.254 69.019 61.469zM537.886 762.1c-14.020 14.020-37.744 14.020-52.843 0l-323.524-324.602c-9.706-9.706-15.098-22.646-15.098-36.666v-417.346c0-25.882 21.568-47.45 47.45-47.45h638.421c25.882 0 47.45 21.568 47.45 47.45v417.346c0 14.020-5.392 26.96-15.098 36.666l-326.76 324.602zM642.492 402.989c19.412 0 35.588-16.176 35.588-35.588v-80.881h-134.802v116.469h99.214zM381.516 402.989h99.214v-116.469h-135.88v80.881c0 19.412 16.176 35.588 36.666 35.588zM344.85 142.012v79.803h134.802v-116.469h-99.214c-19.412 0-35.588 16.176-35.588 36.666zM642.492 105.345h-99.214v116.469h134.802v-80.881c1.078-19.412-15.098-35.588-35.588-35.588z" />
<glyph unicode="&#xe91f;" glyph-name="env-office" d="M613.273 292.377c18.321 16.166 38.799 26.944 62.51 32.333-30.178 30.178-48.499 72.209-48.499 117.475 0 74.365 48.499 136.874 115.319 159.508v219.862c0 17.244-14.011 31.255-31.255 31.255h-323.325c-17.244 0-31.255-14.011-31.255-31.255v-544.265h-37.721v570.131c0 17.244-16.166 29.099-32.333 24.789l-229.562-67.899c-10.778-3.234-18.321-12.932-18.321-24.789v-502.232h-28.021c-5.389 0-10.778-4.311-10.778-10.778v-34.488c0-5.389 4.311-10.778 10.778-10.778h558.276c8.623 30.178 24.789 53.888 44.188 71.131zM628.362 778.443c0 5.389 4.311 10.778 10.778 10.778h31.255c5.389 0 10.778-4.311 10.778-10.778v-31.255c0-5.389-4.311-10.778-10.778-10.778h-31.255c-5.389 0-10.778 4.311-10.778 10.778v31.255zM628.362 676.057c0 5.389 4.311 10.778 10.778 10.778h31.255c5.389 0 10.778-4.311 10.778-10.778v-31.255c0-5.389-4.311-10.778-10.778-10.778h-31.255c-5.389 0-10.778 4.311-10.778 10.778v31.255zM256.538 344.11c0-3.234-2.155-5.389-5.389-5.389h-143.341c-3.234 0-5.389 2.155-5.389 5.389v28.021c0 3.234 2.155 5.389 5.389 5.389h143.341c3.234 0 5.389-2.155 5.389-5.389v-28.021zM256.538 434.641c0-3.234-2.155-5.389-5.389-5.389h-143.341c-3.234 0-5.389 2.155-5.389 5.389v28.021c0 3.234 2.155 5.389 5.389 5.389h143.341c3.234 0 5.389-2.155 5.389-5.389v-28.021zM256.538 524.094c0-3.234-2.155-5.389-5.389-5.389h-143.341c-3.234 0-5.389 2.155-5.389 5.389v28.021c0 3.234 2.155 5.389 5.389 5.389h143.341c3.234 0 5.389-2.155 5.389-5.389v-28.021zM256.538 614.625c0-3.234-2.155-5.389-5.389-5.389h-143.341c-3.234 0-5.389 2.155-5.389 5.389v28.021c0 3.234 2.155 5.389 5.389 5.389h143.341c3.234 0 5.389-2.155 5.389-5.389v-28.021zM256.538 704.079c0-3.234-2.155-5.389-5.389-5.389h-143.341c-3.234 0-5.389 2.155-5.389 5.389v28.021c0 3.234 2.155 5.389 5.389 5.389h143.341c3.234 0 5.389-2.155 5.389-5.389v-28.021zM524.897 778.443c0 5.389 4.311 10.778 10.778 10.778h30.178c5.389 0 10.778-4.311 10.778-10.778v-31.255c0-5.389-4.311-10.778-10.778-10.778h-31.255c-5.389 0-10.778 4.311-10.778 10.778v31.255zM524.897 676.057c0 5.389 4.311 10.778 10.778 10.778h30.178c5.389 0 10.778-4.311 10.778-10.778v-31.255c0-5.389-4.311-10.778-10.778-10.778h-31.255c-5.389 0-10.778 4.311-10.778 10.778v31.255zM524.897 572.593c0 5.389 4.311 10.778 10.778 10.778h30.178c5.389 0 10.778-4.311 10.778-10.778v-31.255c0-5.389-4.311-10.778-10.778-10.778h-31.255c-5.389 0-10.778 4.311-10.778 10.778v31.255zM524.897 470.206c0 5.389 4.311 10.778 10.778 10.778h30.178c5.389 0 10.778-4.311 10.778-10.778v-31.255c0-5.389-4.311-10.778-10.778-10.778h-31.255c-5.389 0-10.778 4.311-10.778 10.778v31.255zM474.243 335.487c0-5.389-4.311-10.778-10.778-10.778h-31.255c-5.389 0-10.778 4.311-10.778 10.778v31.255c0 5.389 4.311 10.778 10.778 10.778h31.255c5.389 0 10.778-4.311 10.778-10.778v-31.255zM474.243 438.951c0-5.389-4.311-10.778-10.778-10.778h-31.255c-5.389 0-10.778 4.311-10.778 10.778v31.255c0 5.389 4.311 10.778 10.778 10.778h31.255c5.389 0 10.778-4.311 10.778-10.778v-31.255zM474.243 542.416c0-5.389-4.311-10.778-10.778-10.778h-31.255c-5.389 0-10.778 4.311-10.778 10.778v31.255c0 5.389 4.311 10.778 10.778 10.778h31.255c5.389 0 10.778-4.311 10.778-10.778v-31.255zM474.243 644.803c0-5.389-4.311-10.778-10.778-10.778h-31.255c-5.389 0-10.778 4.311-10.778 10.778v31.255c0 5.389 4.311 10.778 10.778 10.778h31.255c5.389 0 10.778-4.311 10.778-10.778v-31.255zM474.243 747.189c0-5.389-4.311-10.778-10.778-10.778h-31.255c-5.389 0-10.778 4.311-10.778 10.778v31.255c0 5.389 4.311 10.778 10.778 10.778h31.255c5.389 0 10.778-4.311 10.778-10.778v-31.255zM535.674 325.787c-5.389 0-10.778 4.311-10.778 10.778v31.255c0 5.389 4.311 10.778 10.778 10.778h30.178c5.389 0 10.778-4.311 10.778-10.778v-31.255c0-5.389-4.311-10.778-10.778-10.778h-30.178zM1022.819 75.749l-28.021 123.941c-12.932 58.199-57.121 98.075-115.319 96.998-5.389 0-9.7-3.234-11.855-8.623l-43.11-128.253-15.089 76.52h2.155c5.389 0 9.7 4.311 9.7 9.7v25.866c0 5.389-4.311 9.7-9.7 9.7h-33.41c-5.389 0-9.7-4.311-9.7-9.7v-25.866c0-5.389 4.311-9.7 9.7-9.7h2.155l-15.089-76.52-43.11 128.253c-2.155 5.389-6.466 8.623-11.855 8.623-58.199 1.077-102.386-39.876-115.319-96.998l-28.021-122.864c-6.466-28.021 15.089-53.888 43.11-53.888h369.669c28.021-1.077 49.576 25.866 43.11 52.81zM930.133 442.185c0-74.998-60.799-135.796-135.796-135.796s-135.796 60.799-135.796 135.796c0 74.998 60.799 135.796 135.796 135.796s135.796-60.799 135.796-135.796z" />
<glyph unicode="&#xe920;" glyph-name="social-distancing" d="M187.914 746.678c0-32.219-26.119-58.337-58.337-58.337s-58.337 26.119-58.337 58.337c0 32.219 26.119 58.337 58.337 58.337s58.337-26.119 58.337-58.337zM60.749 123.549c0-18.035 14.722-32.573 32.573-32.573 18.035 0 32.758 14.722 32.758 32.573v274.022h14.539l-0.184-274.022c0-18.035 14.539-32.573 32.573-32.573s32.573 14.722 32.573 32.573l0.184 472.407h14.354v-174.094c0-34.966 45.639-34.966 45.639 0v177.774c0 38.646-22.82 76.556-67.907 76.556h-130.662c-41.223 0-67.171-33.678-67.171-75.637v-178.878c0-34.782 46.008-34.782 46.008 0v174.094h14.539l0.184-472.224zM946.122 746.678c0-32.219-26.119-58.337-58.337-58.337s-58.337 26.119-58.337 58.337c0 32.219 26.119 58.337 58.337 58.337s58.337-26.119 58.337-58.337zM818.956 123.549c0-18.035 14.722-32.573 32.573-32.573 18.035 0 32.758 14.722 32.758 32.573v274.022h14.539l-0.184-274.022c0-18.035 14.539-32.573 32.573-32.573s32.573 14.722 32.573 32.573l0.184 472.407h14.354v-174.094c0-34.966 45.639-34.966 45.639 0v177.774c0 38.646-22.82 76.556-67.907 76.556h-130.662c-41.223 0-67.171-33.678-67.171-75.637v-178.878c0-34.782 46.008-34.782 46.008 0v174.094h14.539l0.184-472.224zM721.788 445.787c-13.987 16.563-27.972 33.126-42.143 49.688-1.841 2.208-4.049 2.76-5.889 2.393-2.208 0-4.601-1.104-5.889-3.865-0.92-2.208-2.024-4.417-2.945-6.625-1.472-3.313-1.289-6.257 1.104-9.018 7.362-8.833 14.906-17.483 22.268-26.316-117.411 0-234.824 0-352.235 0 7.362 8.833 14.906 17.483 22.268 26.316 2.393 2.76 2.576 5.705 1.104 9.018-0.92 2.208-2.024 4.417-2.945 6.625-1.841 4.232-8.833 4.969-11.778 1.472-13.987-16.563-27.972-33.126-42.143-49.688-2.76-3.313-2.76-7.362 0-10.674 13.987-16.563 27.972-33.126 42.143-49.688 2.945-3.497 9.938-2.76 11.778 1.472 0.92 2.208 2.024 4.417 2.945 6.625 1.472 3.313 1.289 6.257-1.104 9.018-7.362 8.833-14.722 17.483-22.268 26.316 117.411 0 234.824 0 352.235 0-7.362-8.833-14.906-17.483-22.268-26.316-2.393-2.76-2.576-5.705-1.104-9.018 0.92-2.208 2.024-4.417 2.945-6.625 1.841-4.232 8.833-4.969 11.778-1.472 13.987 16.563 27.972 33.126 42.143 49.688 2.76 3.313 2.76 7.362 0 10.674z" />
<glyph unicode="&#xe921;" glyph-name="icon-negative" d="M1021.797 492.48c-1.447 22.972-21.163 40.517-44.315 39.070-22.972-1.447-40.517-21.163-39.070-44.315 0-0.724 0.181-1.447 0.181-1.989 20.439-235.323-153.748-442.431-389.071-462.87s-442.431 153.748-462.87 389.071 153.748 442.431 389.071 462.87c56.796 4.884 113.954-1.628 168.218-18.992 22.248-6.15 45.22 6.873 51.369 29.121 5.788 20.982-5.426 42.687-25.865 50.284-268.787 87.003-557.289-60.052-644.472-328.838-64.393-198.605-1.628-416.203 158.45-550.235 91.706-77.236 208.011-119.562 327.934-119.38 15.013 0 30.206 0.724 45.4 1.989 281.448 24.6 489.64 272.765 465.040 554.214zM567.429-60.829c22.972 1.989 40.155 22.067 38.166 45.039s-22.067 40.155-45.039 38.166c-0.724 0-1.447-0.181-1.989-0.181-234.781-25.323-445.687 144.523-471.009 379.304s144.342 445.505 379.122 471.009 445.687-144.523 471.009-379.304c6.15-56.616 0.904-113.954-15.555-168.579-5.608-22.429 7.958-45.039 30.206-50.647 20.982-5.245 42.687 6.33 49.741 26.77 81.577 270.595-71.809 555.842-342.223 637.418-199.872 60.052-416.203-7.054-546.797-170.027-75.245-93.334-115.22-210.362-112.507-330.285 0.361-15.013 1.267-30.206 2.894-45.4 30.749-280.905 283.076-483.852 563.982-453.284zM237.143 447.984c0-23.152 18.811-41.783 41.783-41.783v0h466.307c23.152 0 41.783 18.811 41.783 41.783 0 23.152-18.631 41.783-41.783 41.783h-466.307c-23.152 0-41.783-18.631-41.783-41.783z" />
<glyph unicode="&#xe922;" glyph-name="icon-positive" d="M1021.718 492.496c-1.447 22.972-21.163 40.517-44.315 39.070-22.972-1.447-40.517-21.163-39.070-44.315 0-0.724 0.181-1.447 0.181-1.989 20.439-235.323-153.748-442.431-389.071-462.87s-442.431 153.748-462.87 389.071 153.748 442.431 389.071 462.87c56.796 4.884 113.954-1.628 168.218-18.992 22.248-6.15 45.22 6.873 51.369 29.121 5.788 20.982-5.426 42.687-25.865 50.284-268.787 87.003-557.289-60.052-644.472-328.838-64.393-198.605-1.628-416.203 158.45-550.235 91.706-77.236 208.011-119.562 327.934-119.38 15.013 0 30.206 0.724 45.4 1.989 281.448 24.6 489.64 272.765 465.040 554.214zM553.964 680.792c0 23.152-18.631 41.783-41.783 41.783-22.972 0-41.783-18.631-41.783-41.783v-191.19h-191.19c-23.152 0-41.783-18.631-41.783-41.783s18.631-41.783 41.783-41.783h191.19v-191.19c0-23.152 18.631-41.783 41.783-41.783s41.783 18.631 41.783 41.783v191.19h191.19c23.152 0 41.783 18.631 41.783 41.783 0 22.972-18.631 41.783-41.783 41.783h-191.19v191.19zM567.349-60.813c22.972 1.989 40.155 22.067 38.166 45.039s-22.067 40.155-45.039 38.166c-0.724 0-1.447-0.181-1.989-0.181-234.781-25.323-445.687 144.523-471.009 379.304s144.342 445.505 379.122 471.009 445.687-144.523 471.009-379.304c6.15-56.616 0.904-113.954-15.555-168.579-5.608-22.429 7.958-45.039 30.206-50.647 20.982-5.245 42.687 6.33 49.741 26.77 81.577 270.595-71.809 555.842-342.223 637.418-199.872 60.052-416.203-7.054-546.797-170.027-75.245-93.334-115.22-210.362-112.507-330.285 0.361-15.013 1.267-30.206 2.894-45.4 30.749-280.905 283.076-483.852 563.982-453.284z" />
<glyph unicode="&#xe923;" glyph-name="icon-uncertain" d="M1021.718 492.496c-1.447 22.972-21.163 40.517-44.315 39.070-22.972-1.447-40.517-21.163-39.070-44.315 0-0.724 0.181-1.447 0.181-1.989 20.439-235.323-153.748-442.431-389.071-462.87s-442.431 153.748-462.87 389.071 153.748 442.431 389.071 462.87c56.796 4.884 113.954-1.628 168.218-18.992 22.248-6.15 45.22 6.873 51.369 29.121 5.788 20.982-5.426 42.687-25.865 50.284-268.787 87.003-557.289-60.052-644.472-328.838-64.393-198.605-1.628-416.203 158.45-550.235 91.706-77.236 208.011-119.562 327.934-119.38 15.013 0 30.206 0.724 45.4 1.989 281.448 24.6 489.64 272.765 465.040 554.214zM567.349-60.813c22.972 1.989 40.155 22.067 38.166 45.039s-22.067 40.155-45.039 38.166c-0.724 0-1.447-0.181-1.989-0.181-234.781-25.323-445.687 144.523-471.009 379.304s144.342 445.505 379.122 471.009 445.687-144.523 471.009-379.304c6.15-56.616 0.904-113.954-15.555-168.579-5.608-22.429 7.958-45.039 30.206-50.647 20.982-5.245 42.687 6.33 49.741 26.77 81.577 270.595-71.809 555.842-342.223 637.418-199.872 60.052-416.203-7.054-546.797-170.027-75.245-93.334-115.22-210.362-112.507-330.285 0.361-15.013 1.267-30.206 2.894-45.4 30.749-280.905 283.076-483.852 563.982-453.284zM496.445 285.57c-20.259 0-37.261 17.003-37.261 37.261v14.832c-2.713 81.214 52.093 116.486 92.067 142.171 43.411 27.856 67.83 46.124 67.83 95.504 0 62.946-46.124 103.644-117.21 103.644-17.003-0.724-96.228-9.406-96.228-102.92 0-20.259-17.003-37.261-37.261-37.261s-37.261 17.003-37.261 37.261c0 137.469 111.059 176.176 169.303 177.443h0.724c113.050 0 192.455-73.075 192.455-178.166 0-92.791-58.966-130.776-101.654-158.45-39.974-25.685-58.966-39.974-57.52-77.236 0-0.724 0-0.724 0-1.267v-15.555c-0.724-20.982-17.546-37.261-37.985-37.261zM542.569 185.363c0-23.576-19.112-42.687-42.687-42.687s-42.687 19.112-42.687 42.687c0 23.576 19.112 42.687 42.687 42.687s42.687-19.112 42.687-42.687z" />
<glyph unicode="&#xe924;" glyph-name="icon-waiting" d="M1021.718 492.496c-1.447 22.972-21.163 40.517-44.315 39.070-22.972-1.447-40.517-21.163-39.070-44.315 0-0.724 0.181-1.447 0.181-1.989 20.439-235.323-153.748-442.431-389.071-462.87s-442.431 153.748-462.87 389.071 153.748 442.431 389.071 462.87c56.796 4.884 113.954-1.628 168.218-18.992 22.248-6.15 45.22 6.873 51.369 29.121 5.788 20.982-5.426 42.687-25.865 50.284-268.787 87.003-557.289-60.052-644.472-328.838-64.393-198.605-1.628-416.203 158.45-550.235 91.706-77.236 208.011-119.562 327.934-119.38 15.013 0 30.206 0.724 45.4 1.989 281.448 24.6 489.64 272.765 465.040 554.214zM567.349-60.813c22.972 1.989 40.155 22.067 38.166 45.039s-22.067 40.155-45.039 38.166c-0.724 0-1.447-0.181-1.989-0.181-234.781-25.323-445.687 144.523-471.009 379.304s144.342 445.505 379.122 471.009 445.687-144.523 471.009-379.304c6.15-56.616 0.904-113.954-15.555-168.579-5.608-22.429 7.958-45.039 30.206-50.647 20.982-5.245 42.687 6.33 49.741 26.77 81.577 270.595-71.809 555.842-342.223 637.418-199.872 60.052-416.203-7.054-546.797-170.027-75.245-93.334-115.22-210.362-112.507-330.285 0.361-15.013 1.267-30.206 2.894-45.4 30.749-280.905 283.076-483.852 563.982-453.284zM723.086 210.506h-32.739v66.202c0 44.315-19.896 86.279-54.083 113.954l-70.181 57.338 69.458 56.616c34.729 28.398 54.083 69.458 54.083 113.954v66.926h32.739c18.631 0 34.186 15.375 34.186 34.186s-15.375 34.186-34.186 34.186h-421.448c-18.631 0-34.186-15.375-34.186-34.186s15.375-34.186 34.186-34.186h33.462v-66.926c0-44.315 19.896-86.279 54.083-113.954l69.458-56.616-69.458-56.616c-34.729-28.398-54.083-69.458-54.083-113.954v-66.926h-33.462c-18.631 0-34.186-15.375-34.186-34.186s15.555-34.005 34.186-34.005h422.172c18.631 0 34.186 15.375 34.186 34.186s-15.555 34.005-34.186 34.005zM402.026 619.112v66.202h219.407v-66.926c0-23.876-10.853-46.305-28.941-61.137l-80.492-65.478-80.492 65.659c-18.631 15.375-29.484 37.985-29.484 61.679zM402.026 276.888c0 23.876 10.853 46.305 28.941 61.137l81.034 66.202 80.492-65.659c18.631-14.832 28.941-37.261 28.941-61.137v-66.926h-219.407v66.383z" />
<glyph unicode="&#xe925;" glyph-name="update-hospital" d="M690.661 421.153h78.932v-59.732h-78.932v59.732zM690.661 561.061h78.932v-59.732h-78.932v59.732zM441.066 703.814h70.043v55.287h54.932v70.043h-54.932v54.932h-70.043v-54.932h-55.287v-70.043h55.287zM182.227 281.245v-59.91h79.11v59.91h-79.11zM182.227 421.153h79.11v-59.732h-79.11v59.732zM182.227 561.061h79.11v-59.732h-79.11v59.732zM351.646 561.061h79.11v-59.732h-79.11v59.732zM521.243 421.153h78.932v-59.732h-78.932v59.732zM351.646 421.153h79.11v-59.732h-79.11v59.732zM521.243 561.061h78.932v-59.732h-78.932v59.732zM43.741 6.584c-0.711 0-0.533 0-0.711 0v45.154c0 0 0 0.355 0.711 0.355h43.554c3.733-1.778 8.355-1.778 12.088 0h304.705c3.733-1.778 8.355-1.778 12.088 0h119.998c3.733-1.778 8.355-1.778 12.088 0h70.577c2.488 2.311 9.778 11.2-11.378 27.911v0.178h-51.554v172.263c0 15.822-14.222 26.311-28.621 26.311h-102.753c-14.4 0-28.621-10.311-28.621-26.311v-172.263h-288.883v644.254c0 10.311 11.2 20.978 28.621 20.978h157.152v-102.753c0-7.645 6.045-14.045 13.866-14.222h338.66c7.822 0 14.045 6.222 14.222 13.866 0 0 0 0.178 0 0.355v102.753h156.619c17.422 0 28.621-10.488 28.621-20.978v-385.592l27.911-10.488v396.081c0 28.621-26.844 48.888-56.532 48.888h-156.619v172.797c-0.178 7.645-6.4 13.866-14.222 13.866h-338.838c-0.533 0-0.889 0-1.422 0-7.111-0.711-12.445-6.755-12.445-13.866v-172.797h-156.975c-29.866 0-56.532-20.266-56.532-48.888v-644.254h-35.377c-14.4 0-28.978-10.311-28.978-26.311v-48.888c0-15.822 14.578-26.311 28.978-26.311h636.609l-29.688 27.911h-606.921zM423.823 250.312c0 0 0 0.355 0.711 0.355v0h102.753c0.711 0 0.533-0.355 0.711-0.355v-170.13h-104.176v170.13zM320.713 932.076h310.749v-275.728h-310.749v275.728zM803.015 321.778c99.198 0 179.552-80.354 179.552-179.552s-80.354-179.552-179.552-179.552-179.552 80.354-179.552 179.552 80.354 179.552 179.552 179.552zM803.015 348.444c-55.11 0-106.843-21.511-145.775-60.444s-60.444-90.665-60.444-145.775 21.511-106.843 60.444-145.775c38.933-38.933 90.665-60.444 145.775-60.444s106.843 21.511 145.775 60.444c38.933 38.933 60.444 90.665 60.444 145.775s-21.511 106.843-60.444 145.775c-38.933 38.933-90.665 60.444-145.775 60.444v0zM890.48 112.537c6.4 18.844 35.021 9.245 28.799-9.6-16.888-50.31-64.354-84.443-117.509-84.443-68.443 0-123.909 55.466-123.909 123.909s55.466 123.909 123.909 123.909c46.221 0 87.643-25.599 108.798-64.71l5.688 18.844c5.688 19.2 34.844 10.488 29.155-8.711l-17.6-59.021c-3.022-9.955-11.378-17.778-22.578-11.733l-53.687 28.799c-17.6 9.422-3.2 36.088 14.4 26.666l18.311-9.955c-16 29.688-47.288 49.244-82.31 49.244-51.554 0-93.51-41.777-93.51-93.51 0-51.554 41.777-93.51 93.51-93.51 40.177 0 75.732 25.599 88.532 63.821v0z" />
<glyph unicode="&#xe926;" glyph-name="flag-close-contact" d="M339.651 876.737c0-45.974-37.269-83.244-83.244-83.244s-83.244 37.269-83.244 83.244c0 45.974 37.269 83.244 83.244 83.244s83.244-37.269 83.244-83.244zM424.975 365.049c23.871 0 43.23 19.359 43.23 43.23v233.093c0 65.533-53.341 118.874-118.874 118.874h-185.864c-65.533 0-118.874-53.341-118.874-118.874v-233.093c0-23.871 19.359-43.23 43.23-43.23s43.23 19.359 43.23 43.23v209.063h25.935v-197.094c0-0.096-0.032-0.176-0.032-0.272v-440.715c0-23.871 19.359-43.23 43.23-43.23s43.23 19.359 43.23 43.23v354.543h25.935v-354.543c0-23.871 19.359-43.23 43.23-43.23s43.23 19.359 43.23 43.23v638.082h25.951v-209.063c-0.016-23.871 19.343-43.23 43.214-43.23zM850.826 876.737c0-45.974-37.269-83.244-83.244-83.244s-83.244 37.269-83.244 83.244c0 45.974 37.269 83.244 83.244 83.244s83.244-37.269 83.244-83.244zM936.167 365.049c23.871 0 43.23 19.359 43.23 43.23v233.093c0 65.533-53.341 118.874-118.874 118.874h-185.864c-65.533 0-118.874-53.341-118.874-118.874v-233.093c0-23.871 19.359-43.23 43.23-43.23s43.23 19.359 43.23 43.23v209.063h25.935v-197.094c0-0.096-0.032-0.176-0.032-0.272v-440.715c0-23.871 19.359-43.23 43.23-43.23s43.23 19.359 43.23 43.23v354.543h25.935v-354.543c0-23.871 19.359-43.23 43.23-43.23s43.23 19.359 43.23 43.23v638.082h25.951v-209.063c-0.016-23.871 19.343-43.23 43.214-43.23z" />
<glyph unicode="&#xe927;" glyph-name="flag-travel" d="M1018.64 655.416c-38.597 52.031-108.855 73.454-171.633 47.783l-537.448-219.852c-18.555-7.588-48.254-6.645-66.264 2.106l-155.077 75.305c-18.045 8.751-48.291 11.365-67.572 5.846 0 0-6.354-1.815-14.197-4.066s-8.605-9.985-1.779-17.319l158.417-168.801c41.139-43.862 119.639-60.963 175.336-38.197l211.356 86.488-63.613-230.854c-2.651-9.659 2.686-14.379 11.982-10.567l17.428 7.080c37.108 15.178 84.056 55.227 105.006 89.574l140.843 231.399 241.347 98.724c18.555 7.588 27.777 29.229 15.867 45.35zM463.546 585.593l148.032 60.527-114.011 49.925c-40.557 17.791-103.807 20.552-149.994 7.806-9.659-2.651-10.965-11.037-3.305-17.501l119.276-100.758z" />
<glyph unicode="&#xe928;" glyph-name="flag-hcw" d="M786.618 381.928c0.512-1.024 1.104-1.979 1.593-3.037 6.462-13.834 10.65-28.226 12.538-42.233 4.687-1.308 9.307-3.105 13.779-5.496 33.244-17.783 45.77-59.128 27.977-92.372-17.783-33.233-59.128-45.748-92.372-27.977s-45.748 59.15-27.977 92.372c9.966 18.635 27.339 30.742 46.556 34.678-4.13 21.014-14.859 43.995-31.914 60.357-13.299 3.083-26.918 5.336-40.822 6.598-1.218-55.26-183.982-190.876-183.982-190.876s-182.764 135.617-183.971 190.876c-9.762-0.887-19.398-2.253-28.864-4.050-20.877-16.656-35.554-40.504-39.582-59.89 7.464-4.198 13.312-11.093 16.577-19.569 28.397-12.458 53.599-40.412 73.019-81.017 2.867-5.996 2.867-12.834 0.136-18.806 12.026-30.104 18.909-63.030 18.909-90.722 0-43.837-1.911-71.301-38.659-78.583-3.515-3.447-8.202-5.382-13.13-5.382h-28.239c-10.422 0-18.909 8.487-18.909 18.92v0.432c0.239 10.216 8.647 18.488 18.909 18.488h28.239c2.73 0 5.428-0.603 7.907-1.764 6.69 1.411 7.805 3.322 8.419 4.391 3.539 6.087 4.244 21.15 4.244 43.495 0 24.142-6.155 53.052-16.906 79.698-4.823 2.139-8.761 5.916-11.024 10.661-18.51 38.74-43.574 62.803-65.373 62.803-22.266 0-48.558-25.963-66.978-66.158-2.514-5.484-7.179-9.694-12.822-11.684-9.841-25.77-15.245-52.392-15.245-75.295 0-17.521 0.353-36.772 4.597-43.587 0.649-1.047 1.957-3.129 9.512-4.528 2.617 1.308 5.507 2.003 8.487 2.003h28.261c10.047 0 18.284-7.884 18.863-17.794l0.046-0.114v-1.047c0-10.433-8.487-18.92-18.909-18.92h-28.261c-4.641 0-9.113 1.753-12.572 4.88-10.159 1.672-23.642 5.678-31.936 18.988-7.862 12.652-9.307 30.161-9.307 60.094 0 27.339 6.462 58.786 18.227 88.811-1.979 5.461-1.753 11.412 0.671 16.667 11.638 25.463 26.372 47.159 42.573 62.757 9.443 9.136 19.603 16.27 30.196 21.264 3.447 9.67 10.33 17.464 19.045 21.674 1.992 14.108 7.509 28.796 15.826 42.768-111.975-44.554-191.15-153.867-191.15-281.69 0-167.416 135.697-166.995 303.090-166.995h312.169c167.394 0 303.102-0.421 303.102 166.995-0.011 125.297-76.080 232.767-184.562 278.914zM773.671 62.591c0-3.936-3.561-7.111-7.952-7.111h-43.245v-43.234c0-4.403-3.197-7.964-7.111-7.964h-42.665c-3.936 0-7.111 3.561-7.111 7.964v43.234h-43.245c-4.38 0-7.952 3.175-7.952 7.111v42.665c0 3.936 3.572 7.111 7.952 7.111h43.245v43.234c0 4.403 3.175 7.964 7.111 7.964h42.665c3.914 0 7.111-3.561 7.111-7.964v-43.234h43.245c4.403 0 7.952-3.175 7.952-7.111v-42.665zM511.994 959.973c-116.128 0-212.322-89.835-229.274-207.1-1.753-12.094-2.64-24.461-2.64-37.044 0-5.119 0.204-10.183 0.467-15.223 0.443-7.372 1.137-14.642 2.174-21.821 0.16-2.185 0.353-4.358 0.557-6.53 14.62-165.494 111.428-293.363 228.717-293.363 117.266 0 214.097 127.869 228.729 293.363 0.204 2.174 0.375 4.346 0.557 6.53 1.047 7.179 1.729 14.449 2.15 21.821 0.285 5.040 0.489 10.102 0.489 15.223 0 12.572-0.91 24.95-2.64 37.044-16.963 117.266-113.159 207.1-229.285 207.1zM816.45 270.989c0-18.851-15.281-34.132-34.132-34.132s-34.132 15.281-34.132 34.132c0 18.851 15.281 34.132 34.132 34.132s34.132-15.281 34.132-34.132z" />
<glyph unicode="&#xe929;" glyph-name="flag-pregnant" d="M671.834 389.854c22.619 21.216 36.832 51.269 36.832 84.701 0 22.475-6.492 43.395-17.53 61.181 0 0.031-134.24 202.753-134.24 202.753-31.241 43.549-97.593 38.481-135.376 1.556v0c0 0-80.001-78.096-96.21-94.081-16.209-15.974-11.089-40.303 3.911-51.065l112.767-80.82c11.776-8.447 27.104-8.068 38.378-0.286l-121.164-238.826h146.743c-4.167-47.573-8.048-91.951-8.048-91.951 0-0.020-17.99-205.773-17.99-205.773-1.832-20.858 13.588-39.217 34.426-41.061 20.868-1.822 39.228 13.598 41.051 34.436l26.622 304.349h94.418c0 0-4.597 114.867-4.587 114.887zM400.538 626.049l60.25 58.948 28.046-124.758c-2.11 3.072-4.7 5.877-7.915 8.171l-80.38 57.639zM601.397 876.406c0-46.163-37.422-83.585-83.585-83.585s-83.585 37.422-83.585 83.585c0 46.163 37.422 83.585 83.585 83.585s83.585-37.422 83.585-83.585z" />
<glyph unicode="&#xe92a;" glyph-name="flag-elderly" d="M598.128 762.419c53.474 0 100.12 45.294 100.12 98.754 0 53.542-46.646 98.795-100.12 98.795-53.446 0-98.768-45.253-98.768-98.795 0-53.46 45.322-98.754 98.768-98.754zM751.476 543.827l-123.088 63.319-53.446 109.146c-5.134 16.523-14.734 31.912-28.771 44.134-40.133 34.944-100.966 30.724-135.896-9.367l-138.627-159.042c-25.781-29.645-30.26-70.543-14.707-104.025 0.86-3.182 1.912-6.336 3.168-9.449l95.477-234.842-63.387-207.6c-12.481-40.925 10.555-84.225 51.48-96.706 7.524-2.308 15.157-3.373 22.64-3.373 33.168 0 63.893 21.452 74.052 54.839l71.485 233.913c5.162 17.028 4.37 35.312-2.362 51.835l-81.794 201.127 82.832 95.122 18.161-37.074c5.79-11.784 15.294-21.384 26.955-27.324l119.81-60.397c0-23.473 0-453.877 0-469.342 0-15.908 2.95-42.7 37.675-42.7 34.739 0 37.647 27.693 37.647 42.7 0 21.896 0 448.709 0 469.595 6.172 4.499 11.812 10.678 16.318 19.179 21.125 39.941 0.328 65.627-15.622 76.332z" />
<glyph unicode="&#xe92b;" glyph-name="flag-comorbid" d="M748.098 807.307h-28.767c0.8-5.375 1.248-10.879 1.248-16.511v-3.007c0-9.951-1.567-21.823-4.64-34.366h32.127c24.767 0 44.893-20.191 44.893-44.926v-673.666c0-24.735-20.127-44.926-44.893-44.926h-472.139c-24.735 0-44.893 20.191-44.893 44.926v673.666c0 24.735 20.159 44.926 44.893 44.926h32.158c-3.072 12.576-4.64 24.447-4.64 34.366v3.007c0 5.632 0.449 11.136 1.248 16.511h-28.767c-54.462 0-98.779-44.319-98.779-98.811v-673.666c0-54.494 44.319-98.811 98.779-98.811h472.171c54.494 0 98.779 44.319 98.779 98.811v673.666c0 54.494-44.286 98.811-98.779 98.811zM411.218 678.546h201.591c39.678 0 71.868 69.565 71.868 109.243v3.007c0 34.303-23.999 62.878-56.061 70.044-9.247 56.126-57.95 99.132-116.603 99.132s-107.355-43.006-116.571-99.132c-32.095-7.199-56.094-35.743-56.094-70.044v-3.007c0-39.678 32.19-109.243 71.868-109.243zM512.013 924.038c38.142 0 70.237-26.111 79.516-61.373h-159.064c9.344 35.262 41.407 61.373 79.548 61.373zM747.651 493.241h-70.845l-54.142 140.25c-1.919 4.992-6.752 8.448-12.127 8.192-5.344-0.128-10.048-3.551-11.807-8.64l-47.966-139.802h-38.75c-5.504 0-10.367-3.551-12.096-8.736l-15.52-47.006-55.485 194.935c-1.567 5.567-6.495 9.631-12.543 9.184-5.791-0.128-10.752-4.127-12.096-9.759l-32.702-138.618h-79.037v-25.503h89.117c5.919 0 11.039 4.064 12.383 9.824l23.774 100.795 53.406-187.608c1.536-5.44 6.4-9.12 11.999-9.247 0.095 0 0.192 0 0.257 0 5.472 0 10.367 3.488 12.096 8.671l25.631 77.565h38.655c5.44 0 10.272 3.488 12.032 8.64l39.583 115.354 44.701-115.803c1.888-4.928 6.624-8.192 11.872-8.192h79.548v25.503zM285.527 329.89h452.972v-30.495h-452.972v30.495zM285.527 250.949h452.972v-30.495h-452.972v30.495zM285.527 172.009h452.972v-30.495h-452.972v30.495zM285.527 93.132h452.972v-30.558h-452.972v30.558z" />
<glyph unicode="&#xe92c;" glyph-name="edit" d="M1007.99 709.328l-103.998-103.998-213.329 213.329 103.998 103.998q16 16 39.999 16t39.999-16l133.331-133.331q16-16 16-39.999t-16-39.999zM0.010 128.006l629.321 629.321 213.329-213.329-629.321-629.321h-213.329v213.329z" />
<glyph unicode="&#xe92d;" glyph-name="clinic" d="M1015.607 536.644l-488.826 372.512c-8.198 6.149-19.983 6.149-28.181 0l-489.338-372.512c-10.248-7.686-12.297-22.545-4.612-32.793 4.612-5.636 11.273-9.223 18.446-9.223h116.314v-489.338c0-12.81 10.248-23.058 23.058-23.058 0 0 0 0 0 0h698.909c12.81 0 23.058 10.248 23.058 23.058 0 0 0 0 0 0v489.338h116.314c12.81 0 23.058 10.248 23.058 23.058 1.025 7.686-2.562 14.347-8.198 18.958v0zM652.319 308.116h-93.256v-93.256h-93.256v93.256h-93.256v93.256h93.256v93.256h93.256v-93.256h93.256v-93.256z" />
<glyph unicode="&#xe92e;" glyph-name="drugstore" d="M932.268 523.942c-122.288 122.288-320.279 122.288-442.567 0s-122.288-320.808 0-442.567 320.279-122.288 442.567 0 122.288 320.279 0 442.567zM579.167 126.373c-12.176-12.176-32.293-12.176-44.468 0s-12.176 32.293 0 44.468l309.691 309.691c12.176 12.176 32.293 12.176 44.468 0s12.176-32.293 0-44.468l-309.691-309.691zM389.117 448.24h-339.866v230.283c0 47.645 18.529 92.643 52.409 126.523s78.879 52.409 126.523 52.409c47.645 0 92.643-18.529 126.523-52.409s52.409-78.879 52.409-126.523v-195.344c13.235 22.764 29.646 44.468 48.704 64.056v131.288c0 125.994-102.172 227.636-227.636 227.636-62.997 0-119.641-25.411-160.934-66.703s-67.232-97.937-67.232-160.934v-460.037c0-125.994 102.172-227.636 227.636-227.636 62.997 0 119.641 25.411 160.934 66.703 12.705 12.705 23.822 26.999 33.351 42.351-72.526 102.701-83.643 236.106-32.822 348.336z" />
<glyph unicode="&#xe92f;" glyph-name="grocery" d="M626.135 787.239v-5.631h-159.728v5.631c0 26.109 20.99 47.099 47.099 47.099h65.529c26.109 0 47.099-20.99 47.099-47.099zM683.985 720.174l-177.646-178.158c-2.048-2.048-4.096-4.608-6.143-6.655h-91.639v183.789c0 17.406 14.335 31.229 31.229 31.229h212.97c16.894 0 30.717-13.823 31.229-30.205zM914.362 606.010v-70.649h-159.216l101.878 101.878h26.109c16.894 0 31.229-13.823 31.229-31.229zM373.745 539.969c0-1.536-0.512-3.072-0.512-4.096h-317.92c-0.512 1.536-0.512 3.072-0.512 4.096-7.679 74.744 34.812 135.154 94.198 134.642 10.751 0 21.502-1.024 31.741-3.584 5.631-1.536 11.775-2.56 17.918-3.072v86.007c0 8.703 7.167 15.87 15.87 15.87s15.87-7.167 15.87-15.87v-32.765c9.727 12.799 22.526 23.038 36.348 29.693 23.038 11.263 50.683 13.823 76.792 4.608-16.382-47.611-65.017-74.744-113.652-66.041v-22.526c6.143 0.512 11.775 1.536 17.918 3.072 10.239 2.56 20.478 3.584 31.741 3.584 59.386 1.536 101.366-58.874 94.198-133.618zM980.403 476.487v-99.318c0-15.358-12.287-27.645-27.645-27.645h-924.578c-15.358 0-28.157 12.287-28.157 27.645v99.318c0 15.358 12.799 27.645 28.157 27.645h455.633c-8.703-31.229-1.536-65.529 22.526-89.591 34.812-34.812 92.151-35.324 127.475 0l89.591 89.591h228.841c15.87 0 28.157-12.287 28.157-27.645zM701.392 317.783c0-1.536 0.512-2.56 0.512-4.096v-206.827c0-18.43-15.358-33.789-33.789-33.789v0c-18.43 0-33.789 15.358-33.789 33.789v206.827c0 1.536 0 3.072 0.512 4.096h-116.724c0-1.536 0.512-2.56 0.512-4.096v-206.827c0-18.43-15.358-33.789-33.789-33.789v0c-18.43 0-33.789 15.358-33.789 33.789v206.827c0 1.536 0 3.072 0.512 4.096h-117.236c0-1.536 0.512-2.56 0.512-4.096v-206.827c0-18.43-15.358-33.789-33.789-33.789v0c-18.43 0-33.789 15.358-33.789 33.789v206.827c0 1.536 0 3.072 0.512 4.096h-208.363l87.543-303.585c8.703-29.693 35.836-50.171 67.065-50.171h552.904c31.229 0 58.362 20.478 67.065 50.171l87.543 303.585h-220.138zM1006.513 914.714c-23.038 23.038-59.898 23.038-83.447 0l-394.712-394.712c-23.038-23.038-23.038-60.41 0-83.447s59.898-23.038 82.936 0l395.224 395.224c23.038 22.014 23.55 59.898 0 82.936zM572.381 452.426c-14.335 0-26.109 11.775-26.109 26.621 0 14.335 11.775 26.109 26.109 26.109s26.109-11.775 26.109-26.109c0.512-14.335-11.263-26.621-26.109-26.621z" />
<glyph unicode="&#xe930;" glyph-name="road" d="M660.708 937.369c-1.539 10.259-10.259 18.467-21.032 18.467h-253.405c-10.772 0-19.493-8.207-21.032-18.467l-47.193-362.667h390.367l-47.706 362.667zM534.005 617.279c0-11.798-9.746-21.032-21.032-21.032-11.798 0-21.032 9.746-21.032 21.032v42.063c0 11.798 9.233 21.032 21.032 21.032s21.032-9.746 21.032-21.032v-42.063zM534.005 743.981c0-11.798-9.746-21.032-21.032-21.032-11.798 0-21.032 9.746-21.032 21.032v42.576c0 11.798 9.233 21.032 21.032 21.032s21.032-9.746 21.032-21.032v-42.576zM534.005 871.197c0-11.798-9.746-21.032-21.032-21.032-11.798 0-21.032 9.746-21.032 21.032v42.063c0 11.798 9.233 21.032 21.032 21.032s21.032-9.746 21.032-21.032v-42.063zM735.601 363.361h-201.596c0-11.798-9.746-21.032-21.032-21.032-11.798 0-21.032 9.746-21.032 21.032h-202.109l-52.323-399.087c-1.026-6.156 1.026-12.311 5.13-16.928s9.746-7.182 15.902-7.182h507.836c0.513 0 0.513 0 1.026 0 11.798 0 21.032 9.233 21.032 21.032 0 3.078-0.513 6.156-1.539 8.72l-51.297 393.445zM534.005-17.26c0-11.798-9.746-21.032-21.032-21.032-11.798 0-21.032 9.746-21.032 21.032v42.063c0 11.798 9.233 21.032 21.032 21.032s21.032-9.746 21.032-21.032v-42.063zM534.005 109.442c0-11.798-9.746-21.032-21.032-21.032-11.798 0-21.032 9.746-21.032 21.032v42.063c0 11.798 9.233 21.032 21.032 21.032s21.032-9.746 21.032-21.032v-42.063zM534.005 236.658c0-11.798-9.746-21.032-21.032-21.032-11.798 0-21.032 9.746-21.032 21.032v42.063c0 11.798 9.233 21.032 21.032 21.032s21.032-9.746 21.032-21.032v-42.063zM952.586 545.976h-879.224c-40.524 0-73.354-32.83-73.354-73.354v-36.421c0-20.006 16.415-36.421 36.421-36.421h36.421v-73.354c0-20.006 16.415-36.421 36.421-36.421s36.421 16.415 36.421 36.421v73.354h732.515v-73.354c0-20.006 16.415-36.421 36.421-36.421s36.421 16.415 36.421 36.421v73.354h36.421c20.006 0 36.421 16.415 36.421 36.421v36.421c2.052 40.524-30.778 73.354-71.302 73.354z" />
<glyph unicode="&#xe931;" glyph-name="help" d="M721.377 836.504c-58.368 42.086-131.686 63.13-219.955 63.13-67.123 0-123.801-14.797-169.829-44.442-73.062-46.386-111.872-125.184-116.581-236.288h169.318c0 32.41 9.472 63.488 28.314 93.594 18.893 30.003 50.944 45.005 96.154 45.005 45.978 0 77.67-12.186 94.925-36.506 17.356-24.422 26.010-51.405 26.010-80.997 0-25.805-12.902-49.408-28.518-70.81-8.55-12.492-19.813-24.013-33.843-34.509 0 0-91.802-58.88-132.096-106.189-23.347-27.392-25.445-68.506-27.546-127.386-0.102-4.198 1.485-12.902 16.128-12.902 14.694 0 118.579 0 131.635 0 13.107 0 15.821 9.677 15.974 14.029 0.922 21.402 3.277 32.41 7.219 44.8 7.373 23.398 27.546 43.776 50.125 61.389l46.592 32.102c42.086 32.819 75.622 59.699 90.47 80.794 25.293 34.611 43.11 77.312 43.11 128-0.051 82.687-29.235 144.998-87.603 187.187zM498.709 186.727c-58.317 1.792-106.445-38.605-108.288-101.887-1.792-63.181 43.929-105.011 102.298-106.701 60.876-1.792 107.725 37.222 109.619 100.506 1.741 63.282-42.701 106.291-103.628 108.083z" />
<glyph unicode="&#xe932;" glyph-name="govt" d="M34.149-18.472h955.69v-45.509h-955.69v45.509zM978.462 413.864h-143.263c-13.63 159.282-142.238 286.82-301.429 297.936 1.343 3.048 0.979 8.886 0.979 12.424v71.415c68.264 23.254 125.15-59.207 182.036-11.104 0 46.635 0 93.26 0 139.895-56.886-48.114-120.599 34.393-181.979 11.093-0.193 13.527-9.193 24.45-22.766 24.45-13.687 0-22.8-11.104-22.8-24.791v-210.957c0-3.528-0.147-9.352 1.183-12.39-159.384-10.911-287.992-138.688-301.634-297.97h-143.263v-398.204h932.935v398.204zM250.317 109.511c0-21.002-18.83-38.023-39.82-38.023-21.002 0-39.82 17.031-39.82 38.023v184.596c0 21.002 18.83 38.023 39.82 38.023s39.82-17.031 39.82-38.023v-184.596zM455.108 109.511c0-21.002-18.83-38.023-39.82-38.023-21.002 0-39.82 17.031-39.82 38.023v184.596c0 21.002 18.83 38.023 39.82 38.023s39.82-17.031 39.82-38.023v-184.596zM648.522 109.511c0-21.002-18.83-38.023-39.82-38.023s-39.82 17.031-39.82 38.023v184.596c0 21.002 18.83 38.023 39.82 38.023 21.002 0 39.82-17.031 39.82-38.023v-184.596zM853.312 109.511c0-21.002-18.83-38.023-39.82-38.023s-39.82 17.031-39.82 38.023v184.596c0 21.002 18.83 38.023 39.82 38.023 21.002 0 39.82-17.031 39.82-38.023v-184.596z" />
<glyph unicode="&#xe933;" glyph-name="private" d="M358.404 729.584v102.394h307.18v-102.394h-307.18zM921.568 729.584h-153.59v102.394c0 56.521-45.924 102.394-102.394 102.394h-307.18c-56.47 0-102.394-45.871-102.394-102.394v-102.394h-153.59c-56.47 0-102.394-45.871-102.394-102.394v-563.164c0-56.521 45.924-102.394 102.394-102.394h819.146c56.47 0 102.394 45.871 102.394 102.394v563.164c0 56.521-45.924 102.394-102.394 102.394v0z" />
<glyph unicode="&#xe934;" glyph-name="floppy, disk, save, store" d="M448 245.334c0-29.44 23.894-53.334 53.334-53.334s53.334 23.894 53.334 53.334-23.894 53.332-53.334 53.332-53.334-23.892-53.334-53.332zM85.334 960c-47.148 0-85.334-38.186-85.334-85.334v-853.334c0-47.146 38.186-85.334 85.334-85.334h853.334c47.146 0 85.334 38.186 85.334 85.334l-0.002 727.042c0 28.586-11.286 53.974-29.44 72.32l-108.374 107.946c-19.178 19.414-46.080 31.36-75.52 31.36h-725.332zM153.6 853.334h59.734v-166.4c0-26.026 20.906-46.934 46.934-46.934h55.466c26.026 0 46.934 20.906 46.934 46.934l-0.002 166.4h401.066c26.028 0 46.934-20.908 46.934-46.934v-204.8c0-26.026-20.906-46.934-46.934-46.934h-610.132c-26.026 0-46.934 20.908-46.934 46.934v204.8c0 26.026 20.908 46.934 46.934 46.934zM362.666 245.334c0 76.586 62.080 138.666 138.666 138.666s138.666-62.080 138.666-138.666-62.078-138.668-138.664-138.668-138.668 62.080-138.668 138.668z" />
<glyph unicode="&#xe935;" glyph-name="bin" d="M160.013 640.001v-639.982c0-35.198 28.8-63.998 63.998-63.998h575.984c35.198 0 63.998 28.8 63.998 63.998v639.982h-703.98zM352.007 64.019h-63.998v447.986h63.998v-447.986zM480.003 64.019h-63.998v447.986h63.998v-447.986zM608 64.019h-63.998v447.986h63.998v-447.986zM735.996 64.019h-63.998v447.986h63.998v-447.986zM879.992 831.995h-207.994v79.998c0 26.4-21.6 47.998-47.998 47.998h-223.994c-26.4 0-47.998-21.6-47.998-47.998v-79.998h-207.994c-26.4 0-47.998-21.6-47.998-47.998v-79.998h831.976v79.998c0 26.4-21.6 47.998-47.998 47.998zM608 831.995h-191.994v63.196h191.994v-63.196z" />
<glyph unicode="&#xe936;" glyph-name="envelope" d="M1024 545.143v-453.714c0-50.286-41.143-91.429-91.429-91.429h-841.143c-50.286 0-91.429 41.143-91.429 91.429v453.714c17.143-18.857 36.571-35.429 57.714-49.714 94.857-64.571 190.857-129.143 284-197.143 48-35.429 107.429-78.857 169.714-78.857h1.143c62.286 0 121.714 43.429 169.714 78.857 93.143 67.429 189.143 132.571 284.571 197.143 20.571 14.286 40 30.857 57.143 49.714zM1024 713.143c0-64-47.429-121.714-97.714-156.571-89.143-61.714-178.857-123.429-267.429-185.714-37.143-25.714-100-78.286-146.286-78.286h-1.143c-46.286 0-109.143 52.571-146.286 78.286-88.571 62.286-178.286 124-266.857 185.714-40.571 27.429-98.286 92-98.286 144 0 56 30.286 104 91.429 104h841.143c49.714 0 91.429-41.143 91.429-91.429z" />
</font>
</defs>
</svg>
